<svg width="41" height="22" viewBox="0 0 41 22" fill="none" xmlns="http://www.w3.org/2000/svg">
<path d="M10.5275 21.3418C15.6134 21.3418 19.2501 18.252 19.4825 13.5625H14.6564C14.3419 15.8731 12.7423 17.3223 10.5411 17.3223C7.77942 17.3223 6.05676 14.9844 6.05676 11.1152C6.05676 7.28712 7.79309 4.94923 10.5275 4.94923C12.7286 4.94923 14.3829 6.48048 14.629 8.8047L19.4552 8.8047C19.3048 4.14259 15.5177 0.929703 10.5275 0.929703C4.64856 0.929703 0.943481 4.68947 0.943481 11.1289C0.943481 17.582 4.62122 21.3418 10.5275 21.3418ZM33.624 21C37.8486 21 40.5147 18.7715 40.5147 15.3125C40.5147 12.6875 38.4092 10.7051 35.7432 10.582V10.4727C37.9307 10.1719 39.5986 8.40822 39.5986 6.19337C39.5986 3.14455 37.2607 1.2715 33.3779 1.2715L24.2041 1.2715L24.2041 21L33.624 21ZM29.2217 4.82619H32.0518C33.7334 4.82619 34.7178 5.6465 34.7178 7.02736C34.7178 8.44923 33.624 9.31056 31.8057 9.31056H29.2217L29.2217 4.82619ZM29.2217 17.4453V12.3594H32.1748C34.2393 12.3594 35.415 13.2617 35.415 14.875C35.415 16.543 34.2666 17.4453 32.2022 17.4453H29.2217Z" fill="white"/>
</svg>
