<svg width="335" height="212" viewBox="0 0 335 212" fill="none" xmlns="http://www.w3.org/2000/svg">
<path d="M37.0841 132.28L36.6441 136.504L40.8681 135.316L41.1761 137.34L37.1281 137.67L39.7461 141.146L37.8541 142.18L35.9841 138.33L34.2901 142.18L32.3321 141.146L34.9061 137.67L30.9021 137.34L31.2101 135.316L35.3901 136.504L34.9281 132.28H37.0841ZM49.4213 132.28L48.9813 136.504L53.2053 135.316L53.5133 137.34L49.4653 137.67L52.0833 141.146L50.1913 142.18L48.3213 138.33L46.6273 142.18L44.6693 141.146L47.2433 137.67L43.2393 137.34L43.5473 135.316L47.7273 136.504L47.2653 132.28H49.4213ZM61.7585 132.28L61.3185 136.504L65.5425 135.316L65.8505 137.34L61.8025 137.67L64.4205 141.146L62.5285 142.18L60.6585 138.33L58.9645 142.18L57.0065 141.146L59.5805 137.67L55.5765 137.34L55.8845 135.316L60.0645 136.504L59.6025 132.28H61.7585ZM74.0957 132.28L73.6557 136.504L77.8797 135.316L78.1877 137.34L74.1397 137.67L76.7577 141.146L74.8657 142.18L72.9957 138.33L71.3017 142.18L69.3437 141.146L71.9177 137.67L67.9137 137.34L68.2217 135.316L72.4017 136.504L71.9397 132.28H74.0957ZM92.3677 132.28L91.9277 136.504L96.1517 135.316L96.4597 137.34L92.4117 137.67L95.0297 141.146L93.1377 142.18L91.2677 138.33L89.5737 142.18L87.6157 141.146L90.1897 137.67L86.1857 137.34L86.4937 135.316L90.6737 136.504L90.2117 132.28H92.3677ZM104.705 132.28L104.265 136.504L108.489 135.316L108.797 137.34L104.749 137.67L107.367 141.146L105.475 142.18L103.605 138.33L101.911 142.18L99.9529 141.146L102.527 137.67L98.5229 137.34L98.8309 135.316L103.011 136.504L102.549 132.28H104.705ZM117.042 132.28L116.602 136.504L120.826 135.316L121.134 137.34L117.086 137.67L119.704 141.146L117.812 142.18L115.942 138.33L114.248 142.18L112.29 141.146L114.864 137.67L110.86 137.34L111.168 135.316L115.348 136.504L114.886 132.28H117.042ZM129.379 132.28L128.939 136.504L133.163 135.316L133.471 137.34L129.423 137.67L132.041 141.146L130.149 142.18L128.279 138.33L126.585 142.18L124.627 141.146L127.201 137.67L123.197 137.34L123.505 135.316L127.685 136.504L127.223 132.28H129.379ZM147.651 132.28L147.211 136.504L151.435 135.316L151.743 137.34L147.695 137.67L150.313 141.146L148.421 142.18L146.551 138.33L144.857 142.18L142.899 141.146L145.473 137.67L141.469 137.34L141.777 135.316L145.957 136.504L145.495 132.28H147.651ZM159.988 132.28L159.548 136.504L163.772 135.316L164.08 137.34L160.032 137.67L162.65 141.146L160.758 142.18L158.888 138.33L157.194 142.18L155.236 141.146L157.81 137.67L153.806 137.34L154.114 135.316L158.294 136.504L157.832 132.28H159.988ZM172.326 132.28L171.886 136.504L176.11 135.316L176.418 137.34L172.37 137.67L174.988 141.146L173.096 142.18L171.226 138.33L169.532 142.18L167.574 141.146L170.148 137.67L166.144 137.34L166.452 135.316L170.632 136.504L170.17 132.28H172.326ZM184.663 132.28L184.223 136.504L188.447 135.316L188.755 137.34L184.707 137.67L187.325 141.146L185.433 142.18L183.563 138.33L181.869 142.18L179.911 141.146L182.485 137.67L178.481 137.34L178.789 135.316L182.969 136.504L182.507 132.28H184.663ZM201.901 139.364C203.5 139.364 204.776 139.767 205.729 140.574C206.697 141.381 207.181 142.517 207.181 143.984C207.181 145.612 206.66 146.895 205.619 147.834C204.592 148.758 203.155 149.22 201.307 149.22C200.486 149.22 199.723 149.147 199.019 149C198.315 148.853 197.721 148.641 197.237 148.362V146.536C197.765 146.859 198.403 147.115 199.151 147.306C199.914 147.482 200.64 147.57 201.329 147.57C202.488 147.57 203.419 147.299 204.123 146.756C204.842 146.199 205.201 145.341 205.201 144.182C205.201 143.155 204.886 142.371 204.255 141.828C203.624 141.271 202.627 140.992 201.263 140.992C200.852 140.992 200.383 141.029 199.855 141.102C199.327 141.175 198.902 141.249 198.579 141.322L197.611 140.706L198.205 133.292H206.081V135.052H199.855L199.481 139.606C199.73 139.562 200.068 139.511 200.493 139.452C200.918 139.393 201.388 139.364 201.901 139.364ZM214.931 133.072C216.309 133.072 217.439 133.395 218.319 134.04C219.199 134.685 219.639 135.617 219.639 136.834C219.639 137.465 219.499 138.015 219.221 138.484C218.957 138.953 218.597 139.371 218.143 139.738C217.688 140.09 217.189 140.405 216.647 140.684C217.292 141.007 217.879 141.359 218.407 141.74C218.935 142.121 219.353 142.569 219.661 143.082C219.983 143.595 220.145 144.211 220.145 144.93C220.145 146.25 219.675 147.299 218.737 148.076C217.798 148.839 216.551 149.22 214.997 149.22C213.295 149.22 211.99 148.853 211.081 148.12C210.186 147.372 209.739 146.331 209.739 144.996C209.739 144.292 209.885 143.676 210.179 143.148C210.487 142.605 210.89 142.143 211.389 141.762C211.887 141.381 212.423 141.058 212.995 140.794C212.217 140.354 211.565 139.826 211.037 139.21C210.509 138.579 210.245 137.78 210.245 136.812C210.245 136.02 210.45 135.345 210.861 134.788C211.271 134.231 211.829 133.805 212.533 133.512C213.237 133.219 214.036 133.072 214.931 133.072ZM214.909 134.634C214.087 134.634 213.42 134.832 212.907 135.228C212.393 135.609 212.137 136.167 212.137 136.9C212.137 137.443 212.261 137.897 212.511 138.264C212.775 138.631 213.127 138.946 213.567 139.21C214.007 139.459 214.491 139.701 215.019 139.936C215.781 139.613 216.419 139.225 216.933 138.77C217.461 138.315 217.725 137.692 217.725 136.9C217.725 136.167 217.468 135.609 216.955 135.228C216.441 134.832 215.759 134.634 214.909 134.634ZM211.631 145.018C211.631 145.781 211.902 146.419 212.445 146.932C212.987 147.431 213.823 147.68 214.953 147.68C216.023 147.68 216.837 147.431 217.395 146.932C217.967 146.419 218.253 145.759 218.253 144.952C218.253 144.189 217.952 143.559 217.351 143.06C216.749 142.547 215.95 142.099 214.953 141.718L214.601 141.586C213.633 142.011 212.892 142.488 212.379 143.016C211.88 143.544 211.631 144.211 211.631 145.018ZM224.463 149L230.909 135.052H222.439V133.292H232.977V134.788L226.597 149H224.463ZM237.272 149L243.718 135.052H235.248V133.292H245.786V134.788L239.406 149H237.272Z" fill="white"/>
<rect x="335" y="3.05176e-05" width="212" height="335" rx="17" transform="rotate(90 335 3.05176e-05)" fill="url(#paint0_linear)" fill-opacity="0.8" style="mix-blend-mode:soft-light"/>
<rect x="335" y="3.05176e-05" width="212" height="335" rx="17" transform="rotate(90 335 3.05176e-05)" fill="url(#paint1_linear)"/>
<mask id="mask0" mask-type="alpha" maskUnits="userSpaceOnUse" x="0" y="0" width="336" height="212">
<rect x="335" y="3.05176e-05" width="212" height="335" rx="17" transform="rotate(90 335 3.05176e-05)" fill="url(#paint2_linear)" fill-opacity="0.8"/>
<rect x="335" y="3.05176e-05" width="212" height="335" rx="17" transform="rotate(90 335 3.05176e-05)" fill="url(#paint3_linear)"/>
</mask>
<g mask="url(#mask0)">
<g filter="url(#filter0_f)">
<ellipse cx="284.351" cy="71.2188" rx="100.203" ry="76.1726" transform="rotate(90 284.351 71.2188)" fill="#1C5AF6"/>
</g>
<g filter="url(#filter1_f)">
<ellipse cx="66.6015" cy="21.1172" rx="75.7734" ry="95.3155" transform="rotate(90 66.6015 21.1172)" fill="#B0EAFA"/>
</g>
<g filter="url(#filter2_b)">
<rect x="335" y="3.05176e-05" width="212" height="335" rx="17" transform="rotate(90 335 3.05176e-05)" fill="white" fill-opacity="0.07" style="mix-blend-mode:soft-light"/>
</g>
</g>
<rect x="334.308" y="1.52588e-05" width="212" height="334.308" rx="17" transform="rotate(90 334.308 1.52588e-05)" fill="url(#paint4_linear)" fill-opacity="0.8" style="mix-blend-mode:soft-light"/>
<rect x="334.308" y="1.52588e-05" width="212" height="334.308" rx="17" transform="rotate(90 334.308 1.52588e-05)" fill="url(#paint5_linear)"/>
<mask id="mask1" mask-type="alpha" maskUnits="userSpaceOnUse" x="0" y="0" width="335" height="212">
<rect x="334.308" y="1.52588e-05" width="212" height="334.308" rx="17" transform="rotate(90 334.308 1.52588e-05)" fill="url(#paint6_linear)" fill-opacity="0.8"/>
<rect x="334.308" y="1.52588e-05" width="212" height="334.308" rx="17" transform="rotate(90 334.308 1.52588e-05)" fill="url(#paint7_linear)"/>
</mask>
<g mask="url(#mask1)">
<g filter="url(#filter3_f)">
<ellipse cx="283.763" cy="71.2188" rx="100.203" ry="76.0152" transform="rotate(90 283.763 71.2188)" fill="#F6BF76"/>
</g>
<g filter="url(#filter4_f)">
<ellipse cx="66.4639" cy="21.1172" rx="75.7734" ry="95.1185" transform="rotate(90 66.4639 21.1172)" fill="#EF898A"/>
</g>
<g filter="url(#filter5_b)">
<rect x="334.308" y="1.52588e-05" width="212" height="334.308" rx="17" transform="rotate(90 334.308 1.52588e-05)" fill="white" fill-opacity="0.07" style="mix-blend-mode:soft-light"/>
</g>
</g>
<path d="M29.0021 42H27.7421V37.338H22.6181V42H21.3581V32.004H22.6181V36.232H27.7421V32.004H29.0021V42ZM34.5591 34.37C35.4737 34.37 36.1504 34.5707 36.5891 34.972C37.0277 35.3733 37.2471 36.0127 37.2471 36.89V42H36.3511L36.1131 40.936H36.0571C35.7304 41.3467 35.3851 41.65 35.0211 41.846C34.6571 42.042 34.1624 42.14 33.5371 42.14C32.8557 42.14 32.2911 41.9627 31.8431 41.608C31.3951 41.244 31.1711 40.6793 31.1711 39.914C31.1711 39.1673 31.4651 38.5933 32.0531 38.192C32.6411 37.7813 33.5464 37.5573 34.7691 37.52L36.0431 37.478V37.03C36.0431 36.4047 35.9077 35.9707 35.6371 35.728C35.3664 35.4853 34.9837 35.364 34.4891 35.364C34.0971 35.364 33.7237 35.4247 33.3691 35.546C33.0144 35.658 32.6831 35.7887 32.3751 35.938L31.9971 35.014C32.3237 34.8367 32.7111 34.6873 33.1591 34.566C33.6071 34.4353 34.0737 34.37 34.5591 34.37ZM36.0291 38.332L34.9231 38.374C33.9897 38.4113 33.3411 38.5607 32.9771 38.822C32.6224 39.0833 32.4451 39.452 32.4451 39.928C32.4451 40.348 32.5711 40.656 32.8231 40.852C33.0844 41.048 33.4157 41.146 33.8171 41.146C34.4424 41.146 34.9651 40.9733 35.3851 40.628C35.8144 40.2733 36.0291 39.732 36.0291 39.004V38.332ZM41.6887 34.356C42.5474 34.356 43.2287 34.5287 43.7327 34.874C44.2461 35.2193 44.5027 35.7047 44.5027 36.33C44.5027 36.7873 44.3721 37.1513 44.1107 37.422C43.8587 37.6833 43.5181 37.8747 43.0887 37.996V38.052C43.3874 38.136 43.6627 38.2527 43.9147 38.402C44.1667 38.5513 44.3674 38.752 44.5167 39.004C44.6754 39.2467 44.7547 39.5547 44.7547 39.928C44.7547 40.5533 44.4934 41.0807 43.9707 41.51C43.4574 41.93 42.6501 42.14 41.5487 42.14C41.0074 42.14 40.5174 42.098 40.0787 42.014C39.6401 41.93 39.2761 41.8087 38.9867 41.65V40.544C39.3041 40.6933 39.6774 40.8287 40.1067 40.95C40.5454 41.0713 41.0214 41.132 41.5347 41.132C42.0947 41.132 42.5661 41.0387 42.9487 40.852C43.3407 40.656 43.5367 40.3247 43.5367 39.858C43.5367 39.018 42.8227 38.598 41.3947 38.598H40.3867V37.59H41.1987C41.8427 37.59 42.3561 37.506 42.7387 37.338C43.1307 37.1607 43.3267 36.862 43.3267 36.442C43.3267 36.0873 43.1774 35.8213 42.8787 35.644C42.5894 35.4667 42.1694 35.378 41.6187 35.378C41.2081 35.378 40.8441 35.42 40.5267 35.504C40.2187 35.5787 39.8781 35.6953 39.5047 35.854L39.0707 34.874C39.8547 34.5287 40.7274 34.356 41.6887 34.356ZM52.762 36.386C52.762 36.8527 52.622 37.2167 52.342 37.478C52.062 37.7393 51.7027 37.9167 51.264 38.01V38.066C51.7213 38.1313 52.1227 38.2993 52.468 38.57C52.8227 38.8313 53 39.242 53 39.802C53 40.4367 52.762 40.964 52.286 41.384C51.8193 41.7947 51.0447 42 49.962 42H46.728V34.496H49.948C50.48 34.496 50.956 34.5567 51.376 34.678C51.8053 34.79 52.1413 34.986 52.384 35.266C52.636 35.5367 52.762 35.91 52.762 36.386ZM51.516 36.54C51.516 36.1853 51.3853 35.9287 51.124 35.77C50.872 35.602 50.4567 35.518 49.878 35.518H47.96V37.576H49.654C50.8953 37.576 51.516 37.2307 51.516 36.54ZM51.726 39.802C51.726 39.3727 51.5627 39.0647 51.236 38.878C50.9093 38.6913 50.4287 38.598 49.794 38.598H47.96V41.006H49.822C50.438 41.006 50.9093 40.9173 51.236 40.74C51.5627 40.5533 51.726 40.2407 51.726 39.802ZM57.7864 34.37C58.7011 34.37 59.3778 34.5707 59.8164 34.972C60.2551 35.3733 60.4744 36.0127 60.4744 36.89V42H59.5784L59.3404 40.936H59.2844C58.9578 41.3467 58.6124 41.65 58.2484 41.846C57.8844 42.042 57.3898 42.14 56.7644 42.14C56.0831 42.14 55.5184 41.9627 55.0704 41.608C54.6224 41.244 54.3984 40.6793 54.3984 39.914C54.3984 39.1673 54.6924 38.5933 55.2804 38.192C55.8684 37.7813 56.7738 37.5573 57.9964 37.52L59.2704 37.478V37.03C59.2704 36.4047 59.1351 35.9707 58.8644 35.728C58.5938 35.4853 58.2111 35.364 57.7164 35.364C57.3244 35.364 56.9511 35.4247 56.5964 35.546C56.2418 35.658 55.9104 35.7887 55.6024 35.938L55.2244 35.014C55.5511 34.8367 55.9384 34.6873 56.3864 34.566C56.8344 34.4353 57.3011 34.37 57.7864 34.37ZM59.2564 38.332L58.1504 38.374C57.2171 38.4113 56.5684 38.5607 56.2044 38.822C55.8498 39.0833 55.6724 39.452 55.6724 39.928C55.6724 40.348 55.7984 40.656 56.0504 40.852C56.3118 41.048 56.6431 41.146 57.0444 41.146C57.6698 41.146 58.1924 40.9733 58.6124 40.628C59.0418 40.2733 59.2564 39.732 59.2564 39.004V38.332ZM64.1741 34.496V37.618H68.2481V34.496H69.4801V42H68.2481V38.654H64.1741V42H62.9421V34.496H64.1741ZM73.1681 34.496V39.074C73.1681 39.1953 73.1635 39.368 73.1541 39.592C73.1448 39.8067 73.1308 40.0307 73.1121 40.264C73.1028 40.488 73.0935 40.6607 73.0841 40.782L77.1021 34.496H78.6141V42H77.4661V37.576C77.4661 37.4267 77.4661 37.2307 77.4661 36.988C77.4755 36.7453 77.4848 36.5073 77.4941 36.274C77.5035 36.0313 77.5128 35.8493 77.5221 35.728L73.5321 42H72.0061V34.496H73.1681ZM84.0502 34.356C84.6849 34.356 85.2356 34.496 85.7022 34.776C86.1689 35.056 86.5236 35.4527 86.7662 35.966C87.0182 36.47 87.1442 37.0627 87.1442 37.744V38.486H82.0062C82.0249 39.3353 82.2396 39.984 82.6502 40.432C83.0702 40.8707 83.6536 41.09 84.4002 41.09C84.8762 41.09 85.2962 41.048 85.6602 40.964C86.0336 40.8707 86.4162 40.74 86.8082 40.572V41.65C86.4256 41.818 86.0476 41.9393 85.6742 42.014C85.3009 42.098 84.8576 42.14 84.3442 42.14C83.6256 42.14 82.9956 41.9953 82.4542 41.706C81.9129 41.4167 81.4882 40.9873 81.1802 40.418C80.8816 39.8487 80.7322 39.144 80.7322 38.304C80.7322 37.4827 80.8676 36.778 81.1382 36.19C81.4182 35.602 81.8056 35.1493 82.3002 34.832C82.8042 34.5147 83.3876 34.356 84.0502 34.356ZM84.0362 35.364C83.4482 35.364 82.9816 35.5553 82.6362 35.938C82.3002 36.3113 82.0996 36.834 82.0342 37.506H85.8562C85.8469 36.8713 85.6976 36.358 85.4082 35.966C85.1189 35.5647 84.6616 35.364 84.0362 35.364ZM97.4293 34.496H98.7733L95.5673 38.108L99.0393 42H97.6113L94.2233 38.192V42H92.9913V34.496H94.2233V38.136L97.4293 34.496ZM103.393 34.37C104.308 34.37 104.985 34.5707 105.423 34.972C105.862 35.3733 106.081 36.0127 106.081 36.89V42H105.185L104.947 40.936H104.891C104.565 41.3467 104.219 41.65 103.855 41.846C103.491 42.042 102.997 42.14 102.371 42.14C101.69 42.14 101.125 41.9627 100.677 41.608C100.229 41.244 100.005 40.6793 100.005 39.914C100.005 39.1673 100.299 38.5933 100.887 38.192C101.475 37.7813 102.381 37.5573 103.603 37.52L104.877 37.478V37.03C104.877 36.4047 104.742 35.9707 104.471 35.728C104.201 35.4853 103.818 35.364 103.323 35.364C102.931 35.364 102.558 35.4247 102.203 35.546C101.849 35.658 101.517 35.7887 101.209 35.938L100.831 35.014C101.158 34.8367 101.545 34.6873 101.993 34.566C102.441 34.4353 102.908 34.37 103.393 34.37ZM104.863 38.332L103.757 38.374C102.824 38.4113 102.175 38.5607 101.811 38.822C101.457 39.0833 101.279 39.452 101.279 39.928C101.279 40.348 101.405 40.656 101.657 40.852C101.919 41.048 102.25 41.146 102.651 41.146C103.277 41.146 103.799 40.9733 104.219 40.628C104.649 40.2733 104.863 39.732 104.863 39.004V38.332ZM112.119 34.356C113.043 34.356 113.785 34.678 114.345 35.322C114.914 35.966 115.199 36.9367 115.199 38.234C115.199 39.5127 114.914 40.4833 114.345 41.146C113.785 41.8087 113.038 42.14 112.105 42.14C111.526 42.14 111.046 42.0327 110.663 41.818C110.29 41.6033 109.996 41.3467 109.781 41.048H109.697C109.706 41.2067 109.72 41.4073 109.739 41.65C109.767 41.8927 109.781 42.1027 109.781 42.28V45.36H108.549V34.496H109.557L109.725 35.518H109.781C110.005 35.1913 110.299 34.916 110.663 34.692C111.027 34.468 111.512 34.356 112.119 34.356ZM111.895 35.392C111.13 35.392 110.588 35.6067 110.271 36.036C109.954 36.4653 109.79 37.1187 109.781 37.996V38.234C109.781 39.158 109.93 39.872 110.229 40.376C110.537 40.8707 111.102 41.118 111.923 41.118C112.371 41.118 112.744 40.9967 113.043 40.754C113.342 40.502 113.561 40.1567 113.701 39.718C113.85 39.2793 113.925 38.78 113.925 38.22C113.925 37.3613 113.757 36.6753 113.421 36.162C113.094 35.6487 112.586 35.392 111.895 35.392ZM122.356 35.532H119.906V42H118.688V35.532H116.266V34.496H122.356V35.532ZM123.984 42V34.496H125.216V37.576H127.162C128.133 37.576 128.851 37.7533 129.318 38.108C129.785 38.4627 130.018 38.9947 130.018 39.704C130.018 40.404 129.789 40.964 129.332 41.384C128.875 41.7947 128.133 42 127.106 42H123.984ZM131.264 42V34.496H132.496V42H131.264ZM125.216 41.006H126.994C127.526 41.006 127.96 40.9173 128.296 40.74C128.632 40.5533 128.8 40.2313 128.8 39.774C128.8 39.3167 128.641 39.0087 128.324 38.85C128.016 38.682 127.577 38.598 127.008 38.598H125.216V41.006Z" fill="#DDDDDD"/>
<path d="M29.2401 167.496V175H28.1341V170.212C28.1341 170.016 28.1388 169.815 28.1481 169.61C28.1668 169.395 28.1855 169.181 28.2041 168.966H28.1621L25.7121 175H24.6761L22.2961 168.966H22.2541C22.2821 169.386 22.2961 169.815 22.2961 170.254V175H21.1901V167.496H22.8281L25.1941 173.53L27.6021 167.496H29.2401ZM39.8354 167.496V175H38.7294V170.212C38.7294 170.016 38.7341 169.815 38.7434 169.61C38.7621 169.395 38.7808 169.181 38.7994 168.966H38.7574L36.3074 175H35.2714L32.8914 168.966H32.8494C32.8774 169.386 32.8914 169.815 32.8914 170.254V175H31.7854V167.496H33.4234L35.7894 173.53L38.1974 167.496H39.8354ZM50.0455 165.004L46.3215 175H45.1175L48.8415 165.004H50.0455ZM54.1372 167.496H55.4532L57.0772 171.766C57.2172 172.149 57.3432 172.508 57.4552 172.844C57.5672 173.18 57.6512 173.502 57.7072 173.81H57.7632C57.8192 173.577 57.9078 173.273 58.0292 172.9C58.1505 172.517 58.2765 172.135 58.4072 171.752L59.9332 167.496H61.2632L58.0292 176.036C57.7585 176.745 57.4178 177.31 57.0072 177.73C56.5965 178.15 56.0272 178.36 55.2992 178.36C55.0752 178.36 54.8792 178.346 54.7112 178.318C54.5432 178.299 54.3985 178.276 54.2772 178.248V177.268C54.3798 177.287 54.5012 177.305 54.6412 177.324C54.7905 177.343 54.9445 177.352 55.1032 177.352C55.5325 177.352 55.8778 177.231 56.1392 176.988C56.4005 176.745 56.6105 176.423 56.7692 176.022L57.1612 175.028L54.1372 167.496ZM61.4239 167.496H62.7399L64.3639 171.766C64.5039 172.149 64.6299 172.508 64.7419 172.844C64.8539 173.18 64.9379 173.502 64.9939 173.81H65.0499C65.1059 173.577 65.1946 173.273 65.3159 172.9C65.4372 172.517 65.5632 172.135 65.6939 171.752L67.2199 167.496H68.5499L65.3159 176.036C65.0452 176.745 64.7046 177.31 64.2939 177.73C63.8832 178.15 63.3139 178.36 62.5859 178.36C62.3619 178.36 62.1659 178.346 61.9979 178.318C61.8299 178.299 61.6852 178.276 61.5639 178.248V177.268C61.6666 177.287 61.7879 177.305 61.9279 177.324C62.0772 177.343 62.2312 177.352 62.3899 177.352C62.8192 177.352 63.1646 177.231 63.4259 176.988C63.6872 176.745 63.8972 176.423 64.0559 176.022L64.4479 175.028L61.4239 167.496Z" fill="#DDDDDD"/>
<path d="M25.0841 131.28L24.6441 135.504L28.8681 134.316L29.1761 136.34L25.1281 136.67L27.7461 140.146L25.8541 141.18L23.9841 137.33L22.2901 141.18L20.3321 140.146L22.9061 136.67L18.9021 136.34L19.2101 134.316L23.3901 135.504L22.9281 131.28H25.0841ZM37.3513 131.28L36.9113 135.504L41.1353 134.316L41.4433 136.34L37.3953 136.67L40.0133 140.146L38.1213 141.18L36.2513 137.33L34.5573 141.18L32.5993 140.146L35.1733 136.67L31.1693 136.34L31.4773 134.316L35.6573 135.504L35.1953 131.28H37.3513ZM49.6185 131.28L49.1785 135.504L53.4025 134.316L53.7105 136.34L49.6625 136.67L52.2805 140.146L50.3885 141.18L48.5185 137.33L46.8245 141.18L44.8665 140.146L47.4405 136.67L43.4365 136.34L43.7445 134.316L47.9245 135.504L47.4625 131.28H49.6185ZM61.8857 131.28L61.4457 135.504L65.6697 134.316L65.9777 136.34L61.9297 136.67L64.5477 140.146L62.6557 141.18L60.7857 137.33L59.0917 141.18L57.1337 140.146L59.7077 136.67L55.7037 136.34L56.0117 134.316L60.1917 135.504L59.7297 131.28H61.8857Z" fill="#DDDDDD"/>
<path d="M143.084 131.28L142.644 135.504L146.868 134.316L147.176 136.34L143.128 136.67L145.746 140.146L143.854 141.18L141.984 137.33L140.29 141.18L138.332 140.146L140.906 136.67L136.902 136.34L137.21 134.316L141.39 135.504L140.928 131.28H143.084ZM155.351 131.28L154.911 135.504L159.135 134.316L159.443 136.34L155.395 136.67L158.013 140.146L156.121 141.18L154.251 137.33L152.557 141.18L150.599 140.146L153.173 136.67L149.169 136.34L149.477 134.316L153.657 135.504L153.195 131.28H155.351ZM167.618 131.28L167.178 135.504L171.402 134.316L171.71 136.34L167.662 136.67L170.28 140.146L168.388 141.18L166.518 137.33L164.824 141.18L162.866 140.146L165.44 136.67L161.436 136.34L161.744 134.316L165.924 135.504L165.462 131.28H167.618ZM179.886 131.28L179.446 135.504L183.67 134.316L183.978 136.34L179.93 136.67L182.548 140.146L180.656 141.18L178.786 137.33L177.092 141.18L175.134 140.146L177.708 136.67L173.704 136.34L174.012 134.316L178.192 135.504L177.73 131.28H179.886Z" fill="#DDDDDD"/>
<path d="M84.0841 131.28L83.6441 135.504L87.8681 134.316L88.1761 136.34L84.1281 136.67L86.7461 140.146L84.8541 141.18L82.9841 137.33L81.2901 141.18L79.3321 140.146L81.9061 136.67L77.9021 136.34L78.2101 134.316L82.3901 135.504L81.9281 131.28H84.0841ZM96.3513 131.28L95.9113 135.504L100.135 134.316L100.443 136.34L96.3953 136.67L99.0133 140.146L97.1213 141.18L95.2513 137.33L93.5573 141.18L91.5993 140.146L94.1733 136.67L90.1693 136.34L90.4773 134.316L94.6573 135.504L94.1953 131.28H96.3513ZM108.618 131.28L108.178 135.504L112.402 134.316L112.71 136.34L108.662 136.67L111.28 140.146L109.388 141.18L107.518 137.33L105.824 141.18L103.866 140.146L106.44 136.67L102.436 136.34L102.744 134.316L106.924 135.504L106.462 131.28H108.618ZM120.886 131.28L120.446 135.504L124.67 134.316L124.978 136.34L120.93 136.67L123.548 140.146L121.656 141.18L119.786 137.33L118.092 141.18L116.134 140.146L118.708 136.67L114.704 136.34L115.012 134.316L119.192 135.504L118.73 131.28H120.886Z" fill="#DDDDDD"/>
<path d="M202.084 131.28L201.644 135.504L205.868 134.316L206.176 136.34L202.128 136.67L204.746 140.146L202.854 141.18L200.984 137.33L199.29 141.18L197.332 140.146L199.906 136.67L195.902 136.34L196.21 134.316L200.39 135.504L199.928 131.28H202.084ZM214.351 131.28L213.911 135.504L218.135 134.316L218.443 136.34L214.395 136.67L217.013 140.146L215.121 141.18L213.251 137.33L211.557 141.18L209.599 140.146L212.173 136.67L208.169 136.34L208.477 134.316L212.657 135.504L212.195 131.28H214.351ZM226.618 131.28L226.178 135.504L230.402 134.316L230.71 136.34L226.662 136.67L229.28 140.146L227.388 141.18L225.518 137.33L223.824 141.18L221.866 140.146L224.44 136.67L220.436 136.34L220.744 134.316L224.924 135.504L224.462 131.28H226.618ZM238.886 131.28L238.446 135.504L242.67 134.316L242.978 136.34L238.93 136.67L241.548 140.146L239.656 141.18L237.786 137.33L236.092 141.18L234.134 140.146L236.708 136.67L232.704 136.34L233.012 134.316L237.192 135.504L236.73 131.28H238.886Z" fill="#DDDDDD"/>
<rect x="20.0001" y="74" width="48" height="40" rx="10" fill="white" fill-opacity="0.3"/>
<path fill-rule="evenodd" clip-rule="evenodd" d="M305.555 82.2848C306.103 82.8324 306.615 83.4154 307.086 84.0291C307.787 84.9643 308.395 85.9675 308.897 87.0246C309.024 87.2884 309.141 87.5562 309.254 87.8256C309.577 88.6315 309.84 89.4594 310.043 90.3027C310.144 90.7302 310.231 91.1612 310.302 91.5976C310.31 91.6517 310.319 91.7062 310.327 91.7608C310.336 91.8153 310.344 91.8699 310.352 91.924C310.356 91.9488 310.359 91.9732 310.362 91.9976L310.362 91.9976C310.365 92.022 310.368 92.0464 310.371 92.0712L310.374 92.0871C310.378 92.1229 310.38 92.1383 310.381 92.1412C310.405 92.3432 310.426 92.5451 310.441 92.7471C310.513 93.6216 310.522 94.4996 310.466 95.3759C310.451 95.5959 310.434 95.8123 310.411 96.0305C310.401 96.1313 310.39 96.2306 310.378 96.3298C310.378 96.3255 310.378 96.3293 310.375 96.3462C310.371 96.3764 310.368 96.4061 310.364 96.4358C310.36 96.4655 310.356 96.4952 310.352 96.5254C310.29 96.96 310.212 97.3928 310.118 97.8238C309.907 98.7879 309.614 99.7327 309.244 100.65C308.799 101.712 308.252 102.732 307.61 103.688C307.439 103.943 307.261 104.191 307.077 104.436C306.609 105.045 306.101 105.623 305.557 106.166C305.279 106.445 305.257 106.956 305.557 107.231C305.857 107.506 306.324 107.529 306.622 107.231C307.971 105.877 309.124 104.309 309.994 102.606C310.833 100.962 311.43 99.1862 311.739 97.3626C312.053 95.4948 312.081 93.6145 311.837 91.7377C311.597 89.9053 311.062 88.1244 310.288 86.4463C309.49 84.7185 308.403 83.1238 307.111 81.726C306.952 81.5529 306.788 81.385 306.625 81.2189L306.625 81.2188L306.623 81.2169C306.345 80.9384 305.834 80.9172 305.559 81.2169C305.281 81.5203 305.259 81.985 305.555 82.2848ZM310.378 92.1138L310.374 92.0871L310.366 92.0198L310.369 92.0437C310.371 92.0601 310.373 92.0765 310.375 92.0925L310.378 92.1138ZM310.378 92.1138L310.381 92.1412C310.381 92.1422 310.381 92.1417 310.381 92.1401L310.378 92.1138ZM306.998 83.9114L307.055 83.9873C307.036 83.9623 307.017 83.9373 306.998 83.9114ZM309.309 100.492C309.292 100.534 309.274 100.576 309.257 100.619L309.309 100.492ZM306.999 104.54C307.014 104.52 307.029 104.5 307.044 104.48L306.999 104.54ZM298.219 89.6252C298.429 89.8356 298.625 90.0579 298.809 90.292C299.138 90.7405 299.416 91.2232 299.635 91.7343C299.762 92.0572 299.867 92.3866 299.948 92.7241C299.989 92.8962 300.025 93.0665 300.053 93.2403C300.057 93.2616 300.06 93.2833 300.063 93.305C300.065 93.3238 300.068 93.3426 300.071 93.3611C300.073 93.376 300.076 93.3973 300.079 93.417C300.079 93.4222 300.08 93.4272 300.081 93.4322L300.082 93.4434L300.082 93.4458C300.083 93.4564 300.083 93.4658 300.083 93.4727C300.088 93.5205 300.092 93.5702 300.096 93.6198L300.096 93.6199C300.126 93.9729 300.129 94.3312 300.106 94.6842C300.101 94.7711 300.094 94.8598 300.085 94.9467C300.083 94.9741 300.08 95.0021 300.076 95.0304C300.068 95.0864 300.064 95.1158 300.063 95.1284C300.038 95.2863 300.009 95.4429 299.975 95.5995C299.892 95.9786 299.776 96.3496 299.636 96.7096C299.415 97.222 299.138 97.7081 298.807 98.1587C298.623 98.3928 298.426 98.6139 298.217 98.8262C297.939 99.1047 297.917 99.6155 298.217 99.8905C298.517 100.165 298.983 100.189 299.281 99.8905C300.427 98.7375 301.234 97.2315 301.504 95.6244C301.781 93.9853 301.563 92.3268 300.867 90.8154C300.482 89.9799 299.931 89.2119 299.281 88.5591C299.003 88.2806 298.492 88.2593 298.217 88.5591C297.942 88.8624 297.921 89.3271 298.219 89.6252ZM300.071 95.0754L300.076 95.0304L300.083 94.984L300.078 95.0248L300.072 95.0656L300.071 95.0754ZM300.071 95.0754L300.063 95.1284C300.06 95.1541 300.067 95.1099 300.071 95.078L300.071 95.0779L300.071 95.0754ZM300.082 93.4428C300.082 93.407 300.081 93.3587 300.069 93.3414C300.069 93.3411 300.069 93.349 300.071 93.3611L300.072 93.3698C300.074 93.3804 300.076 93.3915 300.077 93.4026L300.079 93.417L300.081 93.4322C300.081 93.4333 300.081 93.4344 300.081 93.4354C300.082 93.4381 300.082 93.4405 300.082 93.4428ZM300.082 93.4434C300.082 93.4432 300.082 93.443 300.082 93.4428C300.088 93.4828 300.086 93.4706 300.082 93.4434ZM298.739 90.1981L298.77 90.2403C298.76 90.2264 298.749 90.2124 298.739 90.1981ZM299.689 91.8655L299.657 91.7872C299.668 91.8133 299.679 91.8394 299.689 91.8655ZM298.737 98.2532C298.747 98.2391 298.758 98.2253 298.768 98.2115L298.737 98.2532ZM302.991 87.1385C302.66 86.7118 302.303 86.3051 301.921 85.9232C301.623 85.6252 301.644 85.1604 301.917 84.8589C302.192 84.5591 302.703 84.5804 302.982 84.8589C303.102 84.9795 303.221 85.1019 303.337 85.2278C304.262 86.2318 305.045 87.376 305.618 88.6159C306.175 89.8221 306.56 91.0975 306.733 92.4137C306.914 93.7796 306.893 95.1384 306.666 96.4972C306.446 97.8098 306.012 99.0888 305.407 100.275C304.784 101.498 303.954 102.622 302.985 103.594C302.687 103.892 302.221 103.869 301.921 103.594C301.621 103.319 301.643 102.809 301.921 102.53C302.303 102.148 302.66 101.741 302.991 101.315C303.593 100.505 304.095 99.6248 304.488 98.6945C304.744 98.0538 304.949 97.3897 305.096 96.7153C305.162 96.4156 305.217 96.1122 305.259 95.8071C305.26 95.7998 305.262 95.7921 305.263 95.7842C305.264 95.7802 305.264 95.7754 305.265 95.7699L305.27 95.722C305.281 95.651 305.288 95.5801 305.295 95.5091C305.311 95.3512 305.323 95.1934 305.334 95.0337C305.375 94.4146 305.368 93.7938 305.316 93.1783C305.307 93.0467 305.293 92.9152 305.277 92.7837C305.285 92.8386 305.279 92.7844 305.274 92.749C305.273 92.7436 305.272 92.7383 305.272 92.7331C305.271 92.7289 305.271 92.7248 305.27 92.7206L305.27 92.7206C305.268 92.71 305.267 92.6989 305.266 92.6878C305.264 92.6767 305.263 92.6656 305.261 92.655C305.262 92.665 305.264 92.6745 305.265 92.6833C305.262 92.6666 305.26 92.6502 305.258 92.6338L305.258 92.6337L305.226 92.4208C305.174 92.1104 305.114 91.8017 305.041 91.4984C304.9 90.9048 304.715 90.3245 304.489 89.761C304.096 88.8298 303.593 87.9485 302.991 87.1385ZM302.904 87.023C302.921 87.0456 302.938 87.0682 302.955 87.0909C302.938 87.0686 302.921 87.0461 302.904 87.023ZM304.545 89.8948L304.516 89.8255C304.526 89.8486 304.535 89.8717 304.545 89.8948ZM305.265 92.6833C305.271 92.7331 305.275 92.7648 305.277 92.7837C305.275 92.7668 305.273 92.7499 305.272 92.7331C305.269 92.716 305.267 92.6995 305.265 92.6833ZM305.263 95.7824C305.265 95.7763 305.266 95.77 305.267 95.7636C305.273 95.7334 305.28 95.7019 305.277 95.6759C305.276 95.6748 305.268 95.7462 305.263 95.7824ZM304.545 98.5584C304.535 98.5816 304.526 98.6047 304.516 98.6278L304.545 98.5584ZM302.904 101.43C302.921 101.407 302.938 101.385 302.955 101.362C302.938 101.385 302.921 101.408 302.904 101.43Z" fill="white" fill-opacity="0.4"/>
<defs>
<filter id="filter0_f" x="134.178" y="-102.984" width="300.345" height="348.406" filterUnits="userSpaceOnUse" color-interpolation-filters="sRGB">
<feFlood flood-opacity="0" result="BackgroundImageFix"/>
<feBlend mode="normal" in="SourceGraphic" in2="BackgroundImageFix" result="shape"/>
<feGaussianBlur stdDeviation="37" result="effect1_foregroundBlur"/>
</filter>
<filter id="filter1_f" x="-152.714" y="-178.656" width="438.631" height="399.547" filterUnits="userSpaceOnUse" color-interpolation-filters="sRGB">
<feFlood flood-opacity="0" result="BackgroundImageFix"/>
<feBlend mode="normal" in="SourceGraphic" in2="BackgroundImageFix" result="shape"/>
<feGaussianBlur stdDeviation="62" result="effect1_foregroundBlur"/>
</filter>
<filter id="filter2_b" x="-39.9999" y="-40" width="415" height="292" filterUnits="userSpaceOnUse" color-interpolation-filters="sRGB">
<feFlood flood-opacity="0" result="BackgroundImageFix"/>
<feGaussianBlur in="BackgroundImage" stdDeviation="20"/>
<feComposite in2="SourceAlpha" operator="in" result="effect1_backgroundBlur"/>
<feBlend mode="normal" in="SourceGraphic" in2="effect1_backgroundBlur" result="shape"/>
</filter>
<filter id="filter3_f" x="133.748" y="-102.984" width="300.03" height="348.406" filterUnits="userSpaceOnUse" color-interpolation-filters="sRGB">
<feFlood flood-opacity="0" result="BackgroundImageFix"/>
<feBlend mode="normal" in="SourceGraphic" in2="BackgroundImageFix" result="shape"/>
<feGaussianBlur stdDeviation="37" result="effect1_foregroundBlur"/>
</filter>
<filter id="filter4_f" x="-152.655" y="-178.656" width="438.237" height="399.547" filterUnits="userSpaceOnUse" color-interpolation-filters="sRGB">
<feFlood flood-opacity="0" result="BackgroundImageFix"/>
<feBlend mode="normal" in="SourceGraphic" in2="BackgroundImageFix" result="shape"/>
<feGaussianBlur stdDeviation="62" result="effect1_foregroundBlur"/>
</filter>
<filter id="filter5_b" x="-40" y="-40" width="414.308" height="292" filterUnits="userSpaceOnUse" color-interpolation-filters="sRGB">
<feFlood flood-opacity="0" result="BackgroundImageFix"/>
<feGaussianBlur in="BackgroundImage" stdDeviation="20"/>
<feComposite in2="SourceAlpha" operator="in" result="effect1_backgroundBlur"/>
<feBlend mode="normal" in="SourceGraphic" in2="effect1_backgroundBlur" result="shape"/>
</filter>
<linearGradient id="paint0_linear" x1="535.406" y1="5.58336" x2="345.664" y2="322.247" gradientUnits="userSpaceOnUse">
<stop stop-color="#55C0F7"/>
<stop offset="1" stop-color="#A8E8FA"/>
</linearGradient>
<linearGradient id="paint1_linear" x1="341.625" y1="4.78574" x2="530.624" y2="341.176" gradientUnits="userSpaceOnUse">
<stop stop-color="#1B5CF6"/>
<stop offset="0.503297" stop-color="#429EFF"/>
<stop offset="1" stop-color="#CB5BAA"/>
</linearGradient>
<linearGradient id="paint2_linear" x1="535.406" y1="5.58336" x2="345.664" y2="322.247" gradientUnits="userSpaceOnUse">
<stop stop-color="#55C0F7"/>
<stop offset="1" stop-color="#A8E8FA"/>
</linearGradient>
<linearGradient id="paint3_linear" x1="341.625" y1="4.78574" x2="530.624" y2="341.176" gradientUnits="userSpaceOnUse">
<stop stop-color="#1B5CF6"/>
<stop offset="0.503297" stop-color="#429EFF"/>
<stop offset="0.890632" stop-color="#D33BA7"/>
</linearGradient>
<linearGradient id="paint4_linear" x1="534.714" y1="5.57181" x2="345.549" y2="321.926" gradientUnits="userSpaceOnUse">
<stop stop-color="#55C0F7"/>
<stop offset="1" stop-color="#A8E8FA"/>
</linearGradient>
<linearGradient id="paint5_linear" x1="340.933" y1="4.77584" x2="529.338" y2="340.804" gradientUnits="userSpaceOnUse">
<stop stop-color="#F3AC6E"/>
<stop offset="0.503297" stop-color="#EC6531"/>
<stop offset="1" stop-color="#ED6F2F"/>
</linearGradient>
<linearGradient id="paint6_linear" x1="534.714" y1="5.57181" x2="345.549" y2="321.926" gradientUnits="userSpaceOnUse">
<stop stop-color="#55C0F7"/>
<stop offset="1" stop-color="#A8E8FA"/>
</linearGradient>
<linearGradient id="paint7_linear" x1="340.933" y1="4.77584" x2="529.338" y2="340.804" gradientUnits="userSpaceOnUse">
<stop stop-color="#1B5CF6"/>
<stop offset="0.503297" stop-color="#429EFF"/>
<stop offset="0.890632" stop-color="#D33BA7"/>
</linearGradient>
</defs>
</svg>
