<svg width="226" height="24" viewBox="0 0 226 24" fill="none" xmlns="http://www.w3.org/2000/svg">
<path d="M7.08412 4.28001L6.64412 8.50401L10.8681 7.31601L11.1761 9.34001L7.12812 9.67001L9.74612 13.146L7.85412 14.18L5.98412 10.33L4.29012 14.18L2.33212 13.146L4.90612 9.67001L0.902122 9.34001L1.21012 7.31601L5.39012 8.50401L4.92812 4.28001H7.08412ZM19.3513 4.28001L18.9113 8.50401L23.1353 7.31601L23.4433 9.34001L19.3953 9.67001L22.0133 13.146L20.1213 14.18L18.2513 10.33L16.5573 14.18L14.5993 13.146L17.1733 9.67001L13.1693 9.34001L13.4773 7.31601L17.6573 8.50401L17.1953 4.28001H19.3513ZM31.6185 4.28001L31.1785 8.50401L35.4025 7.31601L35.7105 9.34001L31.6625 9.67001L34.2805 13.146L32.3885 14.18L30.5185 10.33L28.8245 14.18L26.8665 13.146L29.4405 9.67001L25.4365 9.34001L25.7445 7.31601L29.9245 8.50401L29.4625 4.28001H31.6185ZM43.8857 4.28001L43.4457 8.50401L47.6697 7.31601L47.9777 9.34001L43.9297 9.67001L46.5477 13.146L44.6557 14.18L42.7857 10.33L41.0917 14.18L39.1337 13.146L41.7077 9.67001L37.7037 9.34001L38.0117 7.31601L42.1917 8.50401L41.7297 4.28001H43.8857Z" fill="#DDDDDD"/>
<path d="M125.084 4.28001L124.644 8.50401L128.868 7.31601L129.176 9.34001L125.128 9.67001L127.746 13.146L125.854 14.18L123.984 10.33L122.29 14.18L120.332 13.146L122.906 9.67001L118.902 9.34001L119.21 7.31601L123.39 8.50401L122.928 4.28001H125.084ZM137.351 4.28001L136.911 8.50401L141.135 7.31601L141.443 9.34001L137.395 9.67001L140.013 13.146L138.121 14.18L136.251 10.33L134.557 14.18L132.599 13.146L135.173 9.67001L131.169 9.34001L131.477 7.31601L135.657 8.50401L135.195 4.28001H137.351ZM149.618 4.28001L149.178 8.50401L153.402 7.31601L153.71 9.34001L149.662 9.67001L152.28 13.146L150.388 14.18L148.518 10.33L146.824 14.18L144.866 13.146L147.44 9.67001L143.436 9.34001L143.744 7.31601L147.924 8.50401L147.462 4.28001H149.618ZM161.886 4.28001L161.446 8.50401L165.67 7.31601L165.978 9.34001L161.93 9.67001L164.548 13.146L162.656 14.18L160.786 10.33L159.092 14.18L157.134 13.146L159.708 9.67001L155.704 9.34001L156.012 7.31601L160.192 8.50401L159.73 4.28001H161.886Z" fill="#DDDDDD"/>
<path d="M66.0841 4.28001L65.6441 8.50401L69.8681 7.31601L70.1761 9.34001L66.1281 9.67001L68.7461 13.146L66.8541 14.18L64.9841 10.33L63.2901 14.18L61.3321 13.146L63.9061 9.67001L59.9021 9.34001L60.2101 7.31601L64.3901 8.50401L63.9281 4.28001H66.0841ZM78.3513 4.28001L77.9113 8.50401L82.1353 7.31601L82.4433 9.34001L78.3953 9.67001L81.0133 13.146L79.1213 14.18L77.2513 10.33L75.5573 14.18L73.5993 13.146L76.1733 9.67001L72.1693 9.34001L72.4773 7.31601L76.6573 8.50401L76.1953 4.28001H78.3513ZM90.6185 4.28001L90.1785 8.50401L94.4025 7.31601L94.7105 9.34001L90.6625 9.67001L93.2805 13.146L91.3885 14.18L89.5185 10.33L87.8245 14.18L85.8665 13.146L88.4405 9.67001L84.4365 9.34001L84.7445 7.31601L88.9245 8.50401L88.4625 4.28001H90.6185ZM102.886 4.28001L102.446 8.50401L106.67 7.31601L106.978 9.34001L102.93 9.67001L105.548 13.146L103.656 14.18L101.786 10.33L100.092 14.18L98.1337 13.146L100.708 9.67001L96.7037 9.34001L97.0117 7.31601L101.192 8.50401L100.73 4.28001H102.886Z" fill="#DDDDDD"/>
<path d="M184.084 4.28001L183.644 8.50401L187.868 7.31601L188.176 9.34001L184.128 9.67001L186.746 13.146L184.854 14.18L182.984 10.33L181.29 14.18L179.332 13.146L181.906 9.67001L177.902 9.34001L178.21 7.31601L182.39 8.50401L181.928 4.28001H184.084ZM196.351 4.28001L195.911 8.50401L200.135 7.31601L200.443 9.34001L196.395 9.67001L199.013 13.146L197.121 14.18L195.251 10.33L193.557 14.18L191.599 13.146L194.173 9.67001L190.169 9.34001L190.477 7.31601L194.657 8.50401L194.195 4.28001H196.351ZM208.618 4.28001L208.178 8.50401L212.402 7.31601L212.71 9.34001L208.662 9.67001L211.28 13.146L209.388 14.18L207.518 10.33L205.824 14.18L203.866 13.146L206.44 9.67001L202.436 9.34001L202.744 7.31601L206.924 8.50401L206.462 4.28001H208.618ZM220.886 4.28001L220.446 8.50401L224.67 7.31601L224.978 9.34001L220.93 9.67001L223.548 13.146L221.656 14.18L219.786 10.33L218.092 14.18L216.134 13.146L218.708 9.67001L214.704 9.34001L215.012 7.31601L219.192 8.50401L218.73 4.28001H220.886Z" fill="#DDDDDD"/>
</svg>
