<svg width="90" height="12" viewBox="0 0 90 12" fill="none" xmlns="http://www.w3.org/2000/svg">
<path d="M2.44055 1.13576H0.909302L0.909302 7.53419C0.909302 9.66017 2.42688 11.1641 4.90149 11.1641C7.3761 11.1641 8.89368 9.66017 8.89368 7.53419L8.89368 1.13576H7.36926L7.36926 7.40431C7.36926 8.81252 6.47375 9.80373 4.90149 9.80373C3.32922 9.80373 2.44055 8.81252 2.44055 7.40431L2.44055 1.13576ZM10.5343 11L12.0109 11V6.80959C12.0109 5.69533 12.6808 4.95705 13.7198 4.95705C14.7452 4.95705 15.2511 5.55177 15.2511 6.63185V11H16.7345V6.34474C16.7345 4.69728 15.8253 3.68556 14.2394 3.68556C13.132 3.68556 12.3663 4.19142 11.9767 5.01173H11.9425V3.80861H10.5343L10.5343 11ZM18.2111 11H19.6876V3.80861H18.2111V11ZM18.9493 2.6465C19.421 2.6465 19.797 2.26369 19.797 1.79884C19.797 1.32716 19.421 0.951187 18.9493 0.951187C18.4777 0.951187 18.0948 1.32716 18.0948 1.79884C18.0948 2.26369 18.4777 2.6465 18.9493 2.6465ZM27.337 3.80861H25.7921L23.9874 9.55763H23.9601L22.1554 3.80861H20.5831L23.174 11H24.7599L27.337 3.80861ZM30.9874 4.86818C32.0197 4.86818 32.7169 5.64064 32.7511 6.74123H29.1554C29.2306 5.65431 29.9552 4.86818 30.9874 4.86818ZM32.7443 8.88771C32.546 9.51662 31.924 9.94044 31.0831 9.94044C29.9005 9.94044 29.1486 9.1133 29.1486 7.86232V7.77345L34.2277 7.77345V7.26759C34.2277 5.08693 32.9835 3.67873 30.9874 3.67873C28.9572 3.67873 27.6583 5.18263 27.6583 7.43849C27.6583 9.70802 28.9366 11.1367 31.049 11.1367C32.6964 11.1367 33.9406 10.2002 34.1456 8.88771L32.7443 8.88771ZM35.3761 11H36.8527V6.69337C36.8527 5.67482 37.4406 5.03908 38.3907 5.03908C38.6779 5.03908 38.9376 5.07326 39.0538 5.12111V3.74709C38.9445 3.72658 38.7599 3.6924 38.548 3.6924C37.7003 3.6924 37.0577 4.19142 36.8185 5.03224H36.7843V3.80861H35.3761V11ZM39.84 5.84572C39.84 6.89162 40.5167 7.54787 41.8839 7.86232L43.0529 8.13576C43.839 8.31349 44.1056 8.58693 44.1056 9.05177C44.1056 9.63966 43.5587 10.0088 42.67 10.0088C41.7677 10.0088 41.255 9.63966 41.1183 8.88771H39.6554C39.7921 10.2549 40.8722 11.1367 42.67 11.1367C44.3654 11.1367 45.589 10.2344 45.589 8.92189C45.589 7.88283 45.0284 7.30861 43.5587 6.96681L42.3898 6.70021C41.6105 6.52248 41.2823 6.21486 41.2823 5.76369C41.2823 5.18947 41.8156 4.79982 42.6154 4.79982C43.4425 4.79982 43.9552 5.23732 44.0372 5.93459H45.4249C45.3771 4.60841 44.2902 3.67873 42.6154 3.67873C40.9611 3.67873 39.84 4.56056 39.84 5.84572ZM49.2531 9.95412C48.4601 9.95412 47.9406 9.54396 47.9406 8.91505C47.9406 8.29982 48.4396 7.91017 49.3214 7.84865L51.0919 7.73927V8.30666C51.0919 9.24318 50.2853 9.95412 49.2531 9.95412ZM48.8429 11.1231C49.7863 11.1231 50.6954 10.6172 51.1124 9.8174H51.1466V11H52.5616V6.04396C52.5616 4.60158 51.4474 3.67873 49.7042 3.67873C47.9269 3.67873 46.8195 4.63576 46.7374 5.93459H48.132C48.2618 5.29201 48.795 4.88185 49.6495 4.88185C50.5519 4.88185 51.0919 5.36037 51.0919 6.16017V6.71388L49.1232 6.83009C47.4142 6.9258 46.4503 7.69826 46.4503 8.95607C46.4503 10.2481 47.4347 11.1231 48.8429 11.1231ZM54.0519 11L55.5284 11V1.13576H54.0519V11ZM64.0255 11C66.1241 11 67.3888 9.94728 67.3888 8.21095C67.3888 6.89845 66.4865 5.94826 65.1466 5.79787V5.74318C66.131 5.57912 66.9034 4.64259 66.9034 3.59669C66.9034 2.10646 65.755 1.13576 64.005 1.13576L60.0675 1.13576V11H64.0255ZM61.5988 2.38673H63.6359C64.7433 2.38673 65.3722 2.89259 65.3722 3.80861C65.3722 4.78615 64.6407 5.33302 63.3146 5.33302H61.5988V2.38673ZM61.5988 9.74904V6.50197H63.6222C65.0714 6.50197 65.8234 7.04884 65.8234 8.11525C65.8234 9.18166 65.0919 9.74904 63.7111 9.74904H61.5988ZM71.046 9.95412C70.2531 9.95412 69.7335 9.54396 69.7335 8.91505C69.7335 8.29982 70.2325 7.91017 71.1144 7.84865L72.8849 7.73927V8.30666C72.8849 9.24318 72.0782 9.95412 71.046 9.95412ZM70.6359 11.1231C71.5792 11.1231 72.4884 10.6172 72.9054 9.8174H72.9396V11H74.3546V6.04396C74.3546 4.60158 73.2404 3.67873 71.4972 3.67873C69.7198 3.67873 68.6124 4.63576 68.5304 5.93459H69.9249C70.0548 5.29201 70.588 4.88185 71.4425 4.88185C72.3448 4.88185 72.8849 5.36037 72.8849 6.16017V6.71388L70.9161 6.83009C69.2072 6.9258 68.2433 7.69826 68.2433 8.95607C68.2433 10.2481 69.2277 11.1231 70.6359 11.1231ZM75.7902 11H77.2667V6.80959C77.2667 5.69533 77.9366 4.95705 78.9757 4.95705C80.0011 4.95705 80.507 5.55177 80.507 6.63185V11H81.9904V6.34474C81.9904 4.69728 81.0812 3.68556 79.4952 3.68556C78.3878 3.68556 77.6222 4.19142 77.2325 5.01173H77.1984V3.80861H75.7902V11ZM84.964 6.89162H84.9503V1.13576H83.4738V11H84.9503V8.41603L85.5656 7.80763L88.006 11H89.7218L86.6251 6.90529L89.6056 3.80861H87.8693L84.964 6.89162Z" fill="white" fill-opacity="0.6"/>
</svg>
