<svg width="14" height="27" viewBox="0 0 14 27" fill="none" xmlns="http://www.w3.org/2000/svg">
<path fill-rule="evenodd" clip-rule="evenodd" d="M7.55545 1.28481C8.10299 1.83235 8.615 2.41544 9.08649 3.02911C9.78691 3.96429 10.3952 4.96747 10.8974 6.02457C11.024 6.2884 11.1414 6.55616 11.2541 6.8256C11.5768 7.6315 11.8399 8.45941 12.0433 9.30267C12.1444 9.73017 12.2314 10.1612 12.3023 10.5976C12.3103 10.6517 12.3187 10.7062 12.3271 10.7608C12.3356 10.8153 12.344 10.8699 12.352 10.924C12.3555 10.9488 12.3586 10.9732 12.3617 10.9976L12.3617 10.9976C12.3648 11.022 12.3679 11.0464 12.3715 11.0712L12.3739 11.0871C12.3784 11.1229 12.3804 11.1383 12.3809 11.1412C12.405 11.3432 12.4259 11.5451 12.4407 11.7471C12.5134 12.6216 12.5223 13.4996 12.4655 14.3759C12.4513 14.5959 12.4336 14.8123 12.4105 15.0305C12.4008 15.1313 12.3895 15.2306 12.3781 15.3298C12.3785 15.3255 12.3776 15.3293 12.375 15.3462C12.3715 15.3764 12.3675 15.4061 12.3635 15.4358C12.3595 15.4655 12.3555 15.4952 12.352 15.5254C12.2899 15.96 12.2118 16.3928 12.1178 16.8238C11.9067 17.7879 11.6136 18.7327 11.2437 19.6497C10.7992 20.7121 10.2519 21.7315 9.6096 22.6882C9.43856 22.9432 9.26071 23.1914 9.07724 23.4364C8.60879 24.0448 8.10051 24.623 7.55724 25.1663C7.27874 25.4448 7.25746 25.9557 7.55724 26.2306C7.85702 26.5056 8.32355 26.5286 8.62156 26.2306C9.97147 24.8772 11.1245 23.3091 11.9937 21.6062C12.8327 19.9618 13.4305 18.1862 13.7391 16.3626C14.0531 14.4948 14.0815 12.6145 13.8367 10.7377C13.5972 8.90532 13.0615 7.12436 12.2881 5.44629C11.4899 3.71855 10.4025 2.12385 9.11113 0.726042C8.95211 0.552884 8.7878 0.385007 8.62524 0.218903L8.62511 0.218778L8.62332 0.216944C8.34482 -0.0615529 7.83395 -0.0828395 7.559 0.216943C7.2805 0.520273 7.25922 0.985025 7.55545 1.28481ZM12.3776 11.1138L12.3739 11.0871L12.3656 11.0198L12.3688 11.0437C12.371 11.0601 12.3733 11.0765 12.375 11.0925L12.3776 11.1138ZM12.3776 11.1138L12.3809 11.1412C12.3811 11.1422 12.3811 11.1417 12.3809 11.1401L12.3776 11.1138ZM8.9976 2.91144L9.05508 2.9873C9.03592 2.96231 9.01676 2.93727 8.9976 2.91144ZM11.309 19.4917C11.2917 19.5341 11.2743 19.5764 11.2567 19.6186L11.309 19.4917ZM8.99939 23.5397C9.01431 23.5196 9.02924 23.4999 9.04416 23.4804L8.99939 23.5397ZM0.218778 8.62515C0.429236 8.83561 0.624919 9.05789 0.808525 9.29199C1.13764 9.74051 1.41569 10.2232 1.63463 10.7343C1.76225 11.0572 1.86732 11.3866 1.94831 11.7241C1.98911 11.8962 2.02459 12.0665 2.05297 12.2403C2.05652 12.2616 2.05962 12.2833 2.06273 12.305C2.06541 12.3238 2.06809 12.3426 2.07106 12.3611C2.07299 12.376 2.07593 12.3973 2.07869 12.417C2.07935 12.4222 2.08005 12.4272 2.08084 12.4322L2.08241 12.4434L2.08245 12.4458C2.08259 12.4564 2.08272 12.4658 2.08313 12.4727C2.08844 12.5205 2.09199 12.5702 2.09554 12.6198L2.09554 12.6199C2.1257 12.9729 2.12925 13.3312 2.10619 13.6842C2.10087 13.7711 2.09378 13.8598 2.08491 13.9467C2.08263 13.9741 2.07963 14.0021 2.07636 14.0304C2.06826 14.0864 2.06435 14.1158 2.06293 14.1284C2.03831 14.2863 2.00939 14.4429 1.97493 14.5995C1.89238 14.9786 1.77624 15.3496 1.63561 15.7096C1.41518 16.222 1.1375 16.7081 0.807239 17.1587C0.623251 17.3928 0.42607 17.6139 0.217048 17.8262C-0.0614475 18.1047 -0.0827315 18.6155 0.217053 18.8905C0.516837 19.1654 0.983363 19.1885 1.28137 18.8905C2.42728 17.7375 3.23438 16.2315 3.504 14.6244C3.78071 12.9853 3.56252 11.3268 2.86716 9.81543C2.48223 8.97993 1.93055 8.21185 1.28132 7.55907C1.00282 7.28057 0.491946 7.25928 0.216999 7.55906C-0.0579484 7.86239 -0.0792325 8.32714 0.218778 8.62515ZM2.07103 14.0754L2.07636 14.0304L2.08313 13.984L2.07781 14.0248L2.07249 14.0656L2.07103 14.0754ZM2.07103 14.0754L2.06293 14.1284C2.06001 14.1541 2.06741 14.1099 2.07072 14.078L2.07073 14.0779L2.07103 14.0754ZM2.08241 12.4428C2.08191 12.407 2.08092 12.3587 2.06893 12.3414C2.06858 12.3411 2.06949 12.349 2.07106 12.3611L2.07248 12.3698C2.07426 12.3804 2.07559 12.3915 2.07692 12.4026L2.07869 12.417L2.08084 12.4322C2.081 12.4333 2.08118 12.4344 2.08135 12.4354C2.08173 12.4381 2.08208 12.4405 2.08241 12.4428ZM2.08241 12.4434C2.08241 12.4432 2.08241 12.443 2.08241 12.4428C2.0881 12.4828 2.08629 12.4706 2.08241 12.4434ZM0.738522 9.19811L0.770234 9.24026C0.759664 9.22637 0.749093 9.21236 0.738522 9.19811ZM1.68932 10.8655L1.65707 10.7872C1.66797 10.8133 1.67872 10.8394 1.68932 10.8655ZM0.736787 17.2532C0.747241 17.2391 0.757696 17.2253 0.76815 17.2115L0.736787 17.2532ZM4.99069 6.13848C4.65999 5.71177 4.30289 5.30507 3.92099 4.92317C3.62298 4.62516 3.64427 4.16041 3.91744 3.85885C4.19239 3.55907 4.70326 3.58036 4.98176 3.85885C5.10238 3.97948 5.22123 4.10187 5.33653 4.22782C6.26249 5.23182 7.04476 6.37597 7.61772 7.6159C8.17472 8.82212 8.55965 10.0975 8.73349 11.4137C8.91442 12.7796 8.89314 14.1384 8.66609 15.4972C8.44613 16.8098 8.01154 18.0888 7.40665 19.2755C6.78403 20.4977 5.95386 21.6223 4.98534 22.5944C4.68733 22.8924 4.2208 22.8693 3.92102 22.5944C3.62124 22.3194 3.64252 21.8085 3.92102 21.5301C4.30293 21.1481 4.66003 20.7414 4.99074 20.3147C5.5928 19.5054 6.09549 18.6248 6.48803 17.6945C6.74394 17.0538 6.94888 16.3897 7.09622 15.7153C7.16185 15.4156 7.21684 15.1122 7.25941 14.8071C7.26037 14.7998 7.26167 14.7921 7.26314 14.7842C7.26359 14.7802 7.26412 14.7754 7.26474 14.7699L7.27006 14.722C7.2807 14.651 7.2878 14.5801 7.29489 14.5091C7.31086 14.3512 7.32327 14.1934 7.33392 14.0337C7.37471 13.4146 7.36762 12.7938 7.31617 12.1783C7.307 12.0467 7.29254 11.9152 7.27737 11.7837C7.28461 11.8386 7.27865 11.7844 7.2736 11.749C7.2729 11.7436 7.2722 11.7383 7.2715 11.7331C7.27102 11.7289 7.27054 11.7248 7.27005 11.7206L7.27005 11.7206C7.26828 11.71 7.26695 11.6989 7.26562 11.6878C7.26429 11.6767 7.26296 11.6656 7.26118 11.655C7.26242 11.665 7.26359 11.6745 7.26469 11.6833C7.26234 11.6666 7.25999 11.6502 7.25765 11.6338L7.25764 11.6337L7.22571 11.4208C7.17426 11.1104 7.11395 10.8017 7.04122 10.4984C6.89971 9.90476 6.71455 9.32454 6.489 8.76101C6.0963 7.82983 5.59327 6.94846 4.99069 6.13848ZM4.90371 6.02296C4.92094 6.04557 4.93808 6.06822 4.95515 6.09094C4.93801 6.06856 4.92086 6.04607 4.90371 6.02296ZM6.54454 8.89485L6.51599 8.82552C6.52558 8.8486 6.53509 8.87171 6.54454 8.89485ZM7.26469 11.6833C7.27084 11.7331 7.27488 11.7648 7.27737 11.7837C7.27542 11.7668 7.27346 11.7499 7.2715 11.7331C7.26923 11.716 7.26696 11.6995 7.26469 11.6833ZM7.26348 14.7824C7.26464 14.7763 7.2659 14.77 7.26717 14.7636C7.27321 14.7334 7.27952 14.7019 7.27715 14.6759C7.27611 14.6748 7.2677 14.7462 7.26348 14.7824ZM6.54455 17.5584C6.53509 17.5816 6.52556 17.6047 6.51597 17.6278L6.54455 17.5584ZM4.90374 20.4303C4.92091 20.4071 4.93808 20.3846 4.95526 20.3622C4.93816 20.3849 4.92099 20.4076 4.90374 20.4303Z" fill="white" fill-opacity="0.4"/>
</svg>
