<svg width="11" height="14" viewBox="0 0 11 14" fill="none" xmlns="http://www.w3.org/2000/svg">
<g clip-path="url(#clip0)">
<path d="M9.7997 6.28941L4.17617 0.66599C4.0461 0.535822 3.87248 0.464111 3.68735 0.464111C3.50221 0.464111 3.32859 0.535822 3.19852 0.66599L2.78439 1.08002C2.51491 1.34981 2.51491 1.78829 2.78439 2.05767L7.5066 6.77988L2.77915 11.5073C2.64908 11.6375 2.57727 11.811 2.57727 11.9961C2.57727 12.1813 2.64908 12.3548 2.77915 12.4851L3.19328 12.899C3.32345 13.0292 3.49697 13.1009 3.68211 13.1009C3.86724 13.1009 4.04086 13.0292 4.17093 12.899L9.7997 7.27045C9.93007 7.13987 10.0017 6.96553 10.0013 6.78019C10.0017 6.59413 9.93007 6.41989 9.7997 6.28941Z" fill="white"/>
</g>
<defs>
<clipPath id="clip0">
<rect width="9.75" height="13" fill="white" transform="translate(0.582031 0.5)"/>
</clipPath>
</defs>
</svg>
