<svg width="260" height="410" viewBox="0 0 260 410" fill="none" xmlns="http://www.w3.org/2000/svg">
<rect width="260" height="410" rx="17" fill="url(#paint0_linear)" fill-opacity="0.8" style="mix-blend-mode:soft-light"/>
<rect width="260" height="410" rx="17" fill="url(#paint1_linear)"/>
<mask id="mask0" mask-type="alpha" maskUnits="userSpaceOnUse" x="0" y="0" width="260" height="410">
<rect width="260" height="410" rx="17" fill="url(#paint2_linear)" fill-opacity="0.8"/>
<rect width="260" height="410" rx="17" fill="url(#paint3_linear)"/>
</mask>
<g mask="url(#mask0)">
<g filter="url(#filter0_f)">
<ellipse cx="87.3437" cy="61.9884" rx="122.891" ry="93.2262" fill="#1C5AF6"/>
</g>
<g filter="url(#filter1_f)">
<ellipse cx="25.8984" cy="328.487" rx="92.9297" ry="116.655" fill="#B0EAFA"/>
</g>
<g filter="url(#filter2_b)">
<rect width="260" height="410" rx="17" fill="white" fill-opacity="0.07" style="mix-blend-mode:soft-light"/>
</g>
</g>
<path d="M53.3223 362.758C53.3223 357.672 50.2324 354.035 45.543 353.803L45.543 358.629C47.8535 358.943 49.3027 360.543 49.3027 362.744C49.3027 365.506 46.9648 367.229 43.0957 367.229C39.2676 367.229 36.9297 365.492 36.9297 362.758C36.9297 360.557 38.4609 358.902 40.7852 358.656L40.7852 353.83C36.123 353.98 32.9102 357.768 32.9102 362.758C32.9102 368.637 36.6699 372.342 43.1094 372.342C49.5625 372.342 53.3223 368.664 53.3223 362.758ZM52.9805 339.661C52.9805 335.437 50.752 332.771 47.293 332.771C44.668 332.771 42.6855 334.876 42.5625 337.542L42.4531 337.542C42.1523 335.355 40.3887 333.687 38.1738 333.687C35.125 333.687 33.252 336.025 33.252 339.907L33.252 349.081L52.9805 349.081L52.9805 339.661ZM36.8066 344.064L36.8066 341.234C36.8066 339.552 37.627 338.568 39.0078 338.568C40.4297 338.568 41.291 339.661 41.291 341.48L41.291 344.064L36.8066 344.064ZM49.4258 344.064L44.3398 344.064L44.3398 341.11C44.3398 339.046 45.2422 337.87 46.8555 337.87C48.5234 337.87 49.4258 339.019 49.4258 341.083L49.4258 344.064Z" fill="white"/>
<path d="M38.1169 290.067L38.1169 291.598L44.5154 291.598C46.6414 291.598 48.1453 290.081 48.1453 287.606C48.1453 285.131 46.6414 283.614 44.5154 283.614L38.1169 283.614L38.1169 285.138L44.3855 285.138C45.7937 285.138 46.7849 286.034 46.7849 287.606C46.7849 289.178 45.7937 290.067 44.3855 290.067L38.1169 290.067ZM47.9812 281.973L47.9812 280.497L43.7908 280.497C42.6765 280.497 41.9382 279.827 41.9382 278.788C41.9382 277.762 42.533 277.256 43.613 277.256L47.9812 277.256L47.9812 275.773L43.3259 275.773C41.6785 275.773 40.6667 276.682 40.6667 278.268C40.6667 279.376 41.1726 280.141 41.9929 280.531L41.9929 280.565L40.7898 280.565L40.7898 281.973L47.9812 281.973ZM47.9812 274.297L47.9812 272.82L40.7898 272.82L40.7898 274.297L47.9812 274.297ZM39.6277 273.558C39.6277 273.087 39.2449 272.711 38.78 272.711C38.3083 272.711 37.9324 273.087 37.9324 273.558C37.9324 274.03 38.3083 274.413 38.78 274.413C39.2449 274.413 39.6277 274.03 39.6277 273.558ZM40.7898 265.171L40.7898 266.715L46.5388 268.52L46.5388 268.547L40.7898 270.352L40.7898 271.924L47.9812 269.334L47.9812 267.748L40.7898 265.171ZM41.8494 261.52C41.8494 260.488 42.6218 259.791 43.7224 259.756L43.7224 263.352C42.6355 263.277 41.8494 262.552 41.8494 261.52ZM45.8689 259.763C46.4978 259.962 46.9216 260.584 46.9216 261.424C46.9216 262.607 46.0945 263.359 44.8435 263.359L44.7546 263.359L44.7546 258.28L44.2488 258.28C42.0681 258.28 40.6599 259.524 40.6599 261.52C40.6599 263.55 42.1638 264.849 44.4197 264.849C46.6892 264.849 48.1179 263.571 48.1179 261.459C48.1179 259.811 47.1814 258.567 45.8689 258.362L45.8689 259.763ZM47.9812 257.131L47.9812 255.655L43.6746 255.655C42.656 255.655 42.0203 255.067 42.0203 254.117C42.0203 253.83 42.0544 253.57 42.1023 253.454L40.7283 253.454C40.7078 253.563 40.6736 253.748 40.6736 253.96C40.6736 254.807 41.1726 255.45 42.0134 255.689L42.0134 255.723L40.7898 255.723L40.7898 257.131L47.9812 257.131ZM42.8269 252.668C43.8728 252.668 44.5291 251.991 44.8435 250.624L45.1169 249.455C45.2947 248.669 45.5681 248.402 46.033 248.402C46.6208 248.402 46.99 248.949 46.99 249.838C46.99 250.74 46.6208 251.253 45.8689 251.389L45.8689 252.852C47.2361 252.715 48.1179 251.635 48.1179 249.838C48.1179 248.142 47.2156 246.919 45.9031 246.919C44.864 246.919 44.2898 247.479 43.948 248.949L43.6814 250.118C43.5037 250.897 43.196 251.225 42.7449 251.225C42.1707 251.225 41.781 250.692 41.781 249.892C41.781 249.065 42.2185 248.552 42.9158 248.47L42.9158 247.083C41.5896 247.13 40.6599 248.217 40.6599 249.892C40.6599 251.547 41.5417 252.668 42.8269 252.668ZM46.9353 243.255C46.9353 244.047 46.5251 244.567 45.8962 244.567C45.281 244.567 44.8914 244.068 44.8298 243.186L44.7205 241.416L45.2878 241.416C46.2244 241.416 46.9353 242.222 46.9353 243.255ZM48.1042 243.665C48.1042 242.721 47.5984 241.812 46.7986 241.395L46.7986 241.361L47.9812 241.361L47.9812 239.946L43.0251 239.946C41.5828 239.946 40.6599 241.06 40.6599 242.803C40.6599 244.581 41.6169 245.688 42.9158 245.77L42.9158 244.376C42.2732 244.246 41.863 243.713 41.863 242.858C41.863 241.956 42.3416 241.416 43.1414 241.416L43.6951 241.416L43.8113 243.384C43.907 245.093 44.6794 246.057 45.9373 246.057C47.2292 246.057 48.1042 245.073 48.1042 243.665ZM47.9812 238.456L47.9812 236.979L38.1169 236.979L38.1169 238.456L47.9812 238.456ZM47.9812 228.482C47.9812 226.383 46.9285 225.119 45.1921 225.119C43.8796 225.119 42.9294 226.021 42.779 227.361L42.7244 227.361C42.5603 226.377 41.6238 225.604 40.5779 225.604C39.0876 225.604 38.1169 226.753 38.1169 228.503L38.1169 232.44L47.9812 232.44L47.9812 228.482ZM39.3679 230.909L39.3679 228.872C39.3679 227.764 39.8738 227.135 40.7898 227.135C41.7673 227.135 42.3142 227.867 42.3142 229.193L42.3142 230.909L39.3679 230.909ZM46.7302 230.909L43.4832 230.909L43.4832 228.885C43.4832 227.436 44.03 226.684 45.0964 226.684C46.1628 226.684 46.7302 227.416 46.7302 228.797L46.7302 230.909ZM46.9353 221.462C46.9353 222.255 46.5251 222.774 45.8962 222.774C45.281 222.774 44.8914 222.275 44.8298 221.393L44.7205 219.623L45.2878 219.623C46.2244 219.623 46.9353 220.429 46.9353 221.462ZM48.1042 221.872C48.1042 220.928 47.5984 220.019 46.7986 219.602L46.7986 219.568L47.9812 219.568L47.9812 218.153L43.0251 218.153C41.5828 218.153 40.6599 219.267 40.6599 221.01C40.6599 222.788 41.6169 223.895 42.9158 223.977L42.9158 222.583C42.2732 222.453 41.863 221.92 41.863 221.065C41.863 220.163 42.3415 219.623 43.1414 219.623L43.6951 219.623L43.8113 221.591C43.907 223.3 44.6794 224.264 45.9373 224.264C47.2292 224.264 48.1042 223.28 48.1042 221.872ZM47.9812 216.717L47.9812 215.241L43.7908 215.241C42.6765 215.241 41.9382 214.571 41.9382 213.532C41.9382 212.506 42.533 212.001 43.613 212.001L47.9812 212.001L47.9812 210.517L43.3259 210.517C41.6785 210.517 40.6667 211.426 40.6667 213.012C40.6667 214.12 41.1726 214.885 41.9929 215.275L41.9929 215.309L40.7898 215.309L40.7898 216.717L47.9812 216.717ZM43.8728 207.544L43.8728 207.557L38.1169 207.557L38.1169 209.034L47.9812 209.034L47.9812 207.557L45.3972 207.557L44.7888 206.942L47.9812 204.502L47.9812 202.786L43.8865 205.882L40.7898 202.902L40.7898 204.638L43.8728 207.544Z" fill="white" fill-opacity="0.6"/>
<line x1="36.793" y1="306.695" x2="56.4156" y2="306.695" stroke="white"/>
<rect x="90.7539" y="373.285" width="58.7463" height="49.0566" rx="10" transform="rotate(-90 90.7539 373.285)" fill="white" fill-opacity="0.3"/>
<path fill-rule="evenodd" clip-rule="evenodd" d="M100.914 44.6051C101.585 43.9342 102.299 43.307 103.051 42.7293C104.197 41.8712 105.426 41.1259 106.721 40.5107C107.044 40.3556 107.372 40.2118 107.702 40.0737C108.69 39.6783 109.704 39.356 110.737 39.1068C111.261 38.9829 111.789 38.8764 112.323 38.7895C112.39 38.7797 112.457 38.7694 112.523 38.759L112.523 38.759C112.59 38.7487 112.657 38.7384 112.723 38.7286C112.754 38.7243 112.784 38.7205 112.814 38.7167C112.843 38.7129 112.873 38.7091 112.904 38.7047L112.923 38.7017C112.967 38.6962 112.986 38.6937 112.989 38.6931C113.237 38.6636 113.484 38.6381 113.732 38.6199C114.803 38.5308 115.879 38.52 116.952 38.5895C117.222 38.6069 117.487 38.6286 117.754 38.6569C117.878 38.6688 118 38.6826 118.121 38.6965C118.119 38.6964 118.118 38.6965 118.121 38.697C118.124 38.6976 118.13 38.6986 118.141 38.7004C118.178 38.7047 118.215 38.7096 118.251 38.7145C118.287 38.7194 118.324 38.7243 118.361 38.7286C118.893 38.8047 119.423 38.9003 119.952 39.0155C121.133 39.2741 122.29 39.6332 123.414 40.0864C124.715 40.631 125.964 41.3015 127.136 42.0884C127.449 42.298 127.753 42.5159 128.053 42.7407C128.798 43.3146 129.507 43.9373 130.172 44.6029C130.513 44.9441 131.139 44.9702 131.476 44.6029C131.813 44.2356 131.841 43.664 131.476 43.2989C129.818 41.6451 127.897 40.2325 125.811 39.1676C123.796 38.1397 121.621 37.4073 119.386 37.0291C117.098 36.6445 114.794 36.6097 112.495 36.9096C110.25 37.203 108.068 37.8593 106.012 38.8069C103.896 39.7848 101.942 41.117 100.229 42.6991C100.017 42.894 99.8114 43.0954 99.6078 43.2947L99.6056 43.2968C99.2644 43.638 99.2383 44.2639 99.6056 44.6007C99.9772 44.9419 100.547 44.968 100.914 44.6051ZM112.956 38.6972L112.923 38.7017L112.841 38.7119L112.87 38.708C112.89 38.7052 112.91 38.7025 112.93 38.7004L112.956 38.6972ZM112.956 38.6972L112.989 38.6931C112.991 38.6929 112.99 38.693 112.988 38.6932C112.983 38.6937 112.971 38.6952 112.956 38.6972ZM102.907 42.8382C102.938 42.8146 102.969 42.7911 103 42.7677C102.969 42.7912 102.938 42.8147 102.907 42.8382ZM123.22 40.0065C123.272 40.0276 123.324 40.0489 123.376 40.0705L123.22 40.0065ZM128.179 42.836C128.155 42.8177 128.131 42.7994 128.107 42.7811L128.179 42.836ZM109.918 53.5822C110.176 53.3247 110.448 53.0852 110.735 52.8605C111.286 52.4577 111.878 52.1174 112.504 51.8494C112.9 51.6932 113.304 51.5646 113.718 51.4655C113.929 51.4156 114.138 51.3722 114.351 51.3374C114.377 51.3331 114.404 51.3293 114.431 51.3255C114.454 51.3222 114.477 51.3189 114.499 51.3153C114.518 51.3129 114.544 51.3093 114.568 51.3059C114.574 51.3051 114.581 51.3043 114.587 51.3033L114.6 51.3014L114.603 51.3013C114.616 51.3012 114.628 51.301 114.636 51.3005C114.695 51.294 114.756 51.2897 114.817 51.2853L114.817 51.2853C115.25 51.2484 115.689 51.2441 116.122 51.2723C116.229 51.2788 116.338 51.2875 116.444 51.2983C116.478 51.3011 116.512 51.3048 116.547 51.3088C116.615 51.3187 116.652 51.3235 116.667 51.3252C116.861 51.3554 117.053 51.3908 117.245 51.4329C117.71 51.5339 118.165 51.6761 118.606 51.8482C119.235 52.118 119.831 52.4578 120.383 52.862C120.67 53.0872 120.942 53.3285 121.202 53.5844C121.543 53.9252 122.17 53.9513 122.507 53.5844C122.844 53.2175 122.873 52.6465 122.507 52.2818C121.093 50.8793 119.246 49.8915 117.275 49.5615C115.265 49.2229 113.231 49.4899 111.377 50.3409C110.353 50.8121 109.411 51.4872 108.61 52.2818C108.269 52.6227 108.243 53.2479 108.61 53.5844C108.982 53.9209 109.552 53.947 109.918 53.5822ZM116.602 51.3153L116.547 51.3088L116.49 51.3005L116.54 51.307L116.59 51.3135L116.602 51.3153ZM116.602 51.3153L116.667 51.3252C116.699 51.3288 116.644 51.3197 116.605 51.3157L116.605 51.3157L116.602 51.3153ZM114.6 51.3014C114.556 51.302 114.497 51.3032 114.475 51.3179C114.475 51.3183 114.485 51.3172 114.499 51.3153L114.51 51.3135C114.523 51.3114 114.537 51.3097 114.55 51.3081L114.568 51.3059L114.587 51.3033C114.588 51.3031 114.589 51.3029 114.591 51.3027C114.594 51.3022 114.597 51.3018 114.6 51.3014ZM114.6 51.3014C114.6 51.3014 114.6 51.3014 114.6 51.3014C114.649 51.2944 114.634 51.2966 114.6 51.3014ZM110.62 52.9461L110.672 52.9073C110.655 52.9203 110.638 52.9332 110.62 52.9461ZM112.665 51.7825L112.569 51.8219C112.601 51.8086 112.633 51.7954 112.665 51.7825ZM120.499 52.9483C120.482 52.9355 120.465 52.9227 120.448 52.9099L120.499 52.9483ZM106.867 47.7435C106.344 48.1483 105.845 48.5853 105.376 49.0527C105.011 49.4175 104.441 49.3914 104.071 49.0571C103.703 48.7206 103.73 48.0953 104.071 47.7545C104.219 47.6069 104.369 47.4614 104.524 47.3203C105.755 46.187 107.158 45.2296 108.679 44.5284C110.158 43.8467 111.722 43.3756 113.337 43.1628C115.012 42.9414 116.678 42.9674 118.345 43.2453C119.954 43.5145 121.523 44.0464 122.978 44.7867C124.477 45.5487 125.856 46.5647 127.049 47.7501C127.414 48.1148 127.386 48.6858 127.049 49.0527C126.711 49.4196 126.085 49.3935 125.743 49.0527C125.275 48.5853 124.776 48.1482 124.253 47.7435C123.26 47.0066 122.18 46.3914 121.039 45.911C120.254 45.5978 119.439 45.347 118.612 45.1666C118.244 45.0863 117.872 45.019 117.498 44.9669C117.489 44.9657 117.48 44.9641 117.47 44.9623C117.465 44.9618 117.459 44.9611 117.453 44.9604L117.394 44.9539C117.307 44.9409 117.22 44.9322 117.133 44.9235C116.939 44.9039 116.746 44.8888 116.55 44.8757C115.79 44.8258 115.029 44.8345 114.274 44.8974C114.113 44.9087 113.952 44.9264 113.79 44.9449C113.858 44.9361 113.791 44.9434 113.748 44.9495C113.741 44.9504 113.735 44.9512 113.728 44.9521C113.723 44.9527 113.718 44.9533 113.713 44.9539L113.713 44.9539C113.7 44.9561 113.686 44.9577 113.673 44.9593C113.659 44.9609 113.645 44.9626 113.632 44.9647C113.645 44.9632 113.656 44.9618 113.667 44.9605C113.647 44.9633 113.627 44.9662 113.606 44.9691L113.606 44.9691L113.345 45.0082C112.965 45.0711 112.586 45.1449 112.214 45.2339C111.486 45.4071 110.774 45.6338 110.083 45.9098C108.941 46.3904 107.86 47.0061 106.867 47.7435ZM106.725 47.85C106.753 47.8289 106.781 47.8079 106.809 47.787C106.781 47.808 106.754 47.829 106.725 47.85ZM110.247 45.8418L110.162 45.8768C110.191 45.865 110.219 45.8534 110.247 45.8418ZM113.667 44.9605C113.728 44.9529 113.767 44.948 113.79 44.9449C113.77 44.9473 113.749 44.9497 113.728 44.9521C113.707 44.9549 113.687 44.9577 113.667 44.9605ZM117.468 44.9619C117.46 44.9605 117.453 44.959 117.445 44.9574C117.408 44.95 117.369 44.9423 117.337 44.9452C117.336 44.9465 117.424 44.9568 117.468 44.9619ZM120.872 45.8418C120.901 45.8534 120.929 45.865 120.957 45.8768L120.872 45.8418ZM124.395 47.85C124.366 47.829 124.339 47.808 124.311 47.787C124.339 47.8079 124.367 47.8289 124.395 47.85Z" fill="white" fill-opacity="0.4"/>
<path d="M180.82 366.034C180.82 362.65 178.597 360.384 175.342 360.384C172.227 360.384 170.239 362.532 170.239 365.186C170.239 366.765 170.787 367.903 171.743 368.591L171.743 368.773L167.264 368.344L167.264 361.211L164.933 361.211L164.933 370.503L173.956 371.352L173.956 368.838C172.957 368.312 172.345 367.291 172.345 365.97C172.345 364.262 173.569 363.059 175.396 363.059C177.265 363.059 178.511 364.262 178.511 366.045C178.511 367.624 177.576 368.816 176.137 368.988L176.137 371.577C178.865 371.459 180.82 369.235 180.82 366.034ZM180.434 350.012L180.434 347.359L177.479 347.359L177.479 345.264L175.138 345.264L175.138 347.359L164.933 347.359L164.933 351.269C168.134 353.375 171.668 355.577 175.17 357.586L177.479 357.586L177.479 350.012L180.434 350.012ZM175.052 355.018C172.441 353.504 169.595 351.71 167.188 350.12L167.188 349.969L175.202 349.969L175.202 355.018L175.052 355.018ZM180.82 336.397C180.82 332.82 178.973 330.371 176.276 330.371C174.278 330.371 172.71 331.703 172.334 333.722L172.151 333.722C171.732 332.057 170.411 331.004 168.746 331.004C166.297 331.004 164.546 333.239 164.546 336.386C164.546 339.534 166.297 341.779 168.746 341.779C170.4 341.779 171.743 340.705 172.151 339.05L172.334 339.05C172.764 341.081 174.321 342.402 176.287 342.402C178.973 342.402 180.82 339.953 180.82 336.397ZM178.661 336.386C178.661 338.255 177.598 339.544 176.051 339.544C174.504 339.544 173.44 338.255 173.44 336.386C173.44 334.528 174.504 333.239 176.051 333.239C177.598 333.239 178.661 334.517 178.661 336.386ZM171.313 336.386C171.313 337.965 170.379 339.05 169.015 339.05C167.629 339.05 166.673 337.976 166.673 336.386C166.673 334.807 167.629 333.733 169.015 333.733C170.379 333.733 171.313 334.818 171.313 336.386ZM180.81 321.761C180.81 317.819 177.727 315.477 172.506 315.477C167.382 315.477 164.546 317.969 164.546 321.675C164.546 325.048 166.812 327.433 169.992 327.433C172.968 327.433 175.138 325.284 175.138 322.33C175.138 320.515 174.3 319.043 172.828 318.313L172.828 318.13C176.416 318.162 178.489 319.462 178.489 321.729C178.489 323.061 177.77 324.124 176.609 324.457L176.609 327.218C179.145 326.767 180.81 324.597 180.81 321.761ZM172.946 321.664C172.946 323.469 171.7 324.715 169.906 324.715C168.177 324.715 166.855 323.404 166.855 321.653C166.855 319.902 168.198 318.592 169.96 318.592C171.689 318.592 172.946 319.87 172.946 321.664ZM180.434 305.519L180.434 302.619L167.296 295.991L164.933 295.991L164.933 306.776L167.253 306.776L167.253 298.784L167.425 298.784L180.434 305.519ZM180.434 286.909L180.434 284.255L177.479 284.255L177.479 282.16L175.138 282.16L175.138 284.255L164.933 284.255L164.933 288.165C168.134 290.271 171.668 292.473 175.17 294.482L177.479 294.482L177.479 286.909L180.434 286.909ZM175.052 291.914C172.441 290.4 169.595 288.606 167.188 287.016L167.188 286.866L175.202 286.866L175.202 291.914L175.052 291.914ZM180.82 273.443C180.82 270.06 178.597 267.793 175.342 267.793C172.227 267.793 170.239 269.941 170.239 272.595C170.239 274.174 170.787 275.313 171.743 276L171.743 276.183L167.264 275.753L167.264 268.62L164.933 268.62L164.933 277.912L173.956 278.761L173.956 276.247C172.957 275.721 172.345 274.7 172.345 273.379C172.345 271.671 173.569 270.468 175.396 270.468C177.265 270.468 178.511 271.671 178.511 273.454C178.511 275.033 177.576 276.226 176.137 276.397L176.137 278.986C178.865 278.868 180.82 276.645 180.82 273.443ZM169.541 264.759L169.541 262.159C167.93 262.159 166.823 261.085 166.823 259.398C166.823 257.776 167.887 256.809 169.272 256.809C170.433 256.809 171.174 257.282 173.129 259.237L178.511 264.608L180.434 264.608L180.434 253.844L178.081 253.844L178.081 260.848L177.898 260.848L174.654 257.518C172.076 254.854 170.809 254.07 169.004 254.07C166.426 254.07 164.546 256.165 164.546 259.248C164.546 262.481 166.598 264.759 169.541 264.759ZM180.82 238.817C180.82 235.433 178.597 233.166 175.342 233.166C172.227 233.166 170.239 235.315 170.239 237.968C170.239 239.547 170.787 240.686 171.743 241.373L171.743 241.556L167.264 241.126L167.264 233.993L164.933 233.993L164.933 243.285L173.956 244.134L173.956 241.62C172.957 241.094 172.345 240.073 172.345 238.752C172.345 237.044 173.569 235.841 175.396 235.841C177.265 235.841 178.511 237.044 178.511 238.827C178.511 240.406 177.576 241.599 176.137 241.771L176.137 244.36C178.865 244.241 180.82 242.018 180.82 238.817ZM180.434 229.305L180.434 226.404L167.296 219.776L164.933 219.776L164.933 230.561L167.253 230.561L167.253 222.569L167.425 222.569L180.434 229.305ZM169.541 216.871L169.541 214.271C167.93 214.271 166.823 213.197 166.823 211.51C166.823 209.888 167.887 208.922 169.272 208.922C170.433 208.922 171.174 209.394 173.129 211.349L178.511 216.72L180.434 216.72L180.434 205.957L178.081 205.957L178.081 212.961L177.898 212.961L174.654 209.631C172.076 206.966 170.809 206.182 169.004 206.182C166.426 206.182 164.546 208.277 164.546 211.36C164.546 214.593 166.598 216.871 169.541 216.871ZM180.81 196.713C180.81 193.34 178.554 190.955 175.363 190.955C172.388 190.955 170.218 193.115 170.218 196.058C170.218 197.884 171.066 199.345 172.527 200.076L172.527 200.258C168.864 200.237 166.866 198.894 166.866 196.595C166.866 195.22 167.564 194.21 168.757 193.942L168.757 191.17C166.243 191.557 164.546 193.673 164.546 196.649C164.546 200.494 167.64 202.911 172.85 202.911C178.167 202.911 180.81 200.301 180.81 196.713ZM178.5 196.735C178.5 198.486 177.157 199.796 175.385 199.796C173.645 199.796 172.377 198.529 172.377 196.724C172.377 194.919 173.645 193.673 175.438 193.673C177.168 193.673 178.5 194.994 178.5 196.735ZM180.81 176.25C180.81 172.307 177.727 169.966 172.506 169.966C167.382 169.966 164.546 172.458 164.546 176.164C164.546 179.537 166.812 181.922 169.992 181.922C172.968 181.922 175.138 179.773 175.138 176.819C175.138 175.004 174.3 173.532 172.828 172.802L172.828 172.619C176.416 172.651 178.489 173.951 178.489 176.218C178.489 177.55 177.77 178.613 176.609 178.946L176.609 181.707C179.145 181.256 180.81 179.086 180.81 176.25ZM172.946 176.153C172.946 177.958 171.7 179.204 169.906 179.204C168.177 179.204 166.855 177.893 166.855 176.142C166.855 174.391 168.198 173.081 169.96 173.081C171.689 173.081 172.946 174.359 172.946 176.153ZM180.82 160.991C180.82 157.414 178.973 154.964 176.276 154.964C174.278 154.964 172.71 156.296 172.334 158.316L172.151 158.316C171.732 156.651 170.411 155.598 168.746 155.598C166.297 155.598 164.546 157.833 164.546 160.98C164.546 164.127 166.297 166.373 168.746 166.373C170.4 166.373 171.743 165.298 172.151 163.644L172.334 163.644C172.764 165.674 174.321 166.996 176.287 166.996C178.973 166.996 180.82 164.546 180.82 160.991ZM178.661 160.98C178.661 162.849 177.598 164.138 176.051 164.138C174.504 164.138 173.44 162.849 173.44 160.98C173.44 159.122 174.504 157.833 176.051 157.833C177.598 157.833 178.661 159.111 178.661 160.98ZM171.313 160.98C171.313 162.559 170.379 163.644 169.015 163.644C167.629 163.644 166.673 162.57 166.673 160.98C166.673 159.401 167.629 158.327 169.015 158.327C170.379 158.327 171.313 159.412 171.313 160.98ZM169.541 151.876L169.541 149.277C167.93 149.277 166.823 148.202 166.823 146.516C166.823 144.894 167.887 143.927 169.272 143.927C170.433 143.927 171.174 144.4 173.129 146.355L178.511 151.726L180.434 151.726L180.434 140.962L178.081 140.962L178.081 147.966L177.898 147.966L174.654 144.636C172.076 141.972 170.809 141.188 169.004 141.188C166.426 141.188 164.546 143.282 164.546 146.365C164.546 149.599 166.598 151.876 169.541 151.876ZM180.434 136.972L180.434 134.071L167.296 127.443L164.933 127.443L164.933 138.228L167.253 138.228L167.253 130.236L167.425 130.236L180.434 136.972Z" fill="white"/>
<path d="M215.592 368.869C215.592 366.654 213.719 365.383 210.444 365.383C207.177 365.383 205.263 366.675 205.263 368.869C205.263 371.077 207.17 372.369 210.424 372.369C213.705 372.369 215.592 371.091 215.592 368.869ZM214.519 368.869C214.519 370.325 213.062 371.132 210.424 371.132C207.819 371.132 206.343 370.312 206.343 368.869C206.343 367.427 207.806 366.62 210.424 366.62C213.069 366.62 214.519 367.413 214.519 368.869ZM215.359 358.721L215.359 357.518L213.315 357.518L213.315 356.117L212.215 356.117L212.215 357.518L205.495 357.518L205.495 359.302C207.553 360.683 209.959 362.194 212.194 363.527L213.315 363.527L213.315 358.721L215.359 358.721ZM212.14 362.269C210.328 361.196 208.291 359.904 206.637 358.797L206.637 358.714L212.222 358.714L212.222 362.269L212.14 362.269ZM217.458 354.124L205.064 350.57L205.064 351.568L217.458 355.122L217.458 354.124ZM208.277 349.336L208.277 348.146C207.108 348.146 206.336 347.36 206.336 346.178C206.336 345.016 207.115 344.311 208.161 344.311C209.029 344.311 209.542 344.681 210.902 345.938L214.512 349.274L215.359 349.274L215.359 342.89L214.252 342.89L214.252 347.565L214.143 347.565L211.825 345.323C209.986 343.546 209.166 343.054 208.031 343.054C206.432 343.054 205.263 344.373 205.263 346.096C205.263 347.982 206.521 349.336 208.277 349.336ZM215.359 336.372L215.359 335.169L213.315 335.169L213.315 333.767L212.215 333.767L212.215 335.169L205.495 335.169L205.495 336.953C207.553 338.334 209.959 339.844 212.194 341.177L213.315 341.177L213.315 336.372L215.359 336.372ZM212.14 339.919C210.328 338.846 208.291 337.554 206.637 336.447L206.637 336.365L212.222 336.365L212.222 339.919L212.14 339.919Z" fill="white" fill-opacity="0.6"/>
<g clip-path="url(#clip0)">
<path d="M242.027 74.4837L239.766 74.4837C239.576 74.4706 239.385 74.498 239.206 74.564C239.028 74.6301 238.865 74.7333 238.73 74.8667C238.594 75.0002 238.489 75.1609 238.421 75.3381C238.352 75.5153 238.323 75.7049 238.334 75.8944C238.318 76.1423 238.369 76.3901 238.481 76.6118C238.594 76.8336 238.764 77.0211 238.975 77.1549C238.771 77.2769 238.604 77.4514 238.491 77.66C238.378 77.8687 238.324 78.1037 238.334 78.3404C238.324 78.5468 238.367 78.7523 238.461 78.9365C238.555 79.1208 238.696 79.2774 238.869 79.3909L238.425 79.3909L238.425 80.1713L242.027 80.1713L242.027 79.3834L240.045 79.3834C239.922 79.4002 239.796 79.3896 239.678 79.3525C239.559 79.3154 239.45 79.2527 239.359 79.1688C239.267 79.085 239.196 78.982 239.149 78.8674C239.102 78.7527 239.081 78.6291 239.088 78.5055C239.088 77.9878 239.427 77.7252 240.037 77.7252L242.042 77.7252L242.042 76.9373L240.045 76.9373C239.922 76.9534 239.797 76.9424 239.678 76.905C239.56 76.8677 239.452 76.8049 239.36 76.7212C239.269 76.6375 239.197 76.5348 239.15 76.4204C239.103 76.3061 239.082 76.1829 239.088 76.0594C239.088 75.5267 239.427 75.2716 240.037 75.2716L242.042 75.2716L242.027 74.4837ZM238.425 62.8273L238.425 64.1103L237.332 64.1103L237.332 64.8982L238.425 64.8982L238.425 65.611L239.141 65.611L239.141 64.8832L240.799 64.8832C241.635 64.8832 242.133 64.5605 242.133 63.6376C242.134 63.2928 242.037 62.9547 241.854 62.6622L241.183 62.8873C241.309 63.0966 241.379 63.3341 241.387 63.5776C241.387 63.9528 241.145 64.0953 240.784 64.0953L239.141 64.0953L239.141 62.8198L238.425 62.8273ZM238.334 56.1718C238.328 56.362 238.375 56.5503 238.467 56.7167C238.56 56.8831 238.696 57.0214 238.862 57.1172L238.425 57.1172L238.425 57.8901L242.027 57.8901L242.027 57.1097L240.007 57.1097C239.412 57.1097 239.08 56.8546 239.08 56.3594C239.078 56.1925 239.109 56.0267 239.171 55.8716L238.417 55.6315C238.353 55.8098 238.32 55.9975 238.319 56.1868L238.334 56.1718ZM238.711 66.2338C238.447 66.6755 238.316 67.1833 238.334 67.6969C238.334 68.6048 238.771 69.1976 239.487 69.1976C240.075 69.1976 240.437 68.7624 240.55 67.9596L240.603 67.5844C240.663 67.1567 240.776 66.9541 240.98 66.9541C241.259 66.9541 241.417 67.2392 241.417 67.772C241.429 68.2005 241.297 68.6207 241.04 68.965L241.65 69.3402C241.969 68.8856 242.133 68.3412 242.118 67.787C242.118 66.7515 241.628 66.1512 240.942 66.1512C240.256 66.1512 239.977 66.624 239.864 67.4043L239.811 67.7795C239.766 68.1171 239.698 68.3872 239.457 68.3872C239.216 68.3872 239.035 68.1321 239.035 67.7044C239.04 67.3091 239.146 66.9216 239.344 66.5789L238.711 66.2338ZM238.334 45.3332C238.328 45.5234 238.375 45.7117 238.467 45.8781C238.56 46.0445 238.696 46.1828 238.862 46.2786L238.425 46.2786L238.425 47.0515L242.027 47.0515L242.027 46.2711L240.007 46.2711C239.412 46.2711 239.08 46.016 239.08 45.5208C239.078 45.3539 239.109 45.1881 239.171 45.0331L238.417 44.7929C238.353 44.9712 238.32 45.1589 238.319 45.3482L238.334 45.3332ZM240.218 55.3877C240.472 55.397 240.724 55.3535 240.959 55.2602C241.195 55.1668 241.408 55.0255 241.585 54.8454C241.762 54.6653 241.9 54.4503 241.989 54.2142C242.078 53.9782 242.117 53.7261 242.103 53.4743C242.127 53.0058 241.973 52.5453 241.673 52.1837L241.04 52.5589C241.247 52.8287 241.36 53.1576 241.364 53.4968C241.341 53.7853 241.209 54.0544 240.995 54.2506C240.782 54.4468 240.502 54.5557 240.211 54.5557C239.92 54.5557 239.64 54.4468 239.426 54.2506C239.213 54.0544 239.081 53.7853 239.058 53.4968C239.061 53.1576 239.175 52.8287 239.382 52.5589L238.749 52.1837C238.448 52.5453 238.295 53.0058 238.319 53.4743C238.305 53.7261 238.343 53.9782 238.432 54.2142C238.522 54.4503 238.659 54.6653 238.837 54.8454C239.014 55.0255 239.227 55.1668 239.462 55.2602C239.698 55.3535 239.95 55.397 240.203 55.3877L240.218 55.3877ZM240.218 48.0794L238.425 48.0794L238.425 48.8598L238.862 48.8598C238.69 48.9923 238.553 49.1635 238.462 49.3591C238.37 49.5548 238.326 49.7695 238.334 49.9853C238.334 50.4828 238.533 50.9599 238.886 51.3117C239.239 51.6635 239.719 51.8611 240.218 51.8611C240.718 51.8611 241.197 51.6635 241.551 51.3117C241.904 50.9599 242.103 50.4828 242.103 49.9853C242.111 49.7695 242.067 49.5548 241.975 49.3591C241.884 49.1635 241.746 48.9923 241.575 48.8598L242.012 48.8598L242.012 48.0794L240.218 48.0794ZM240.218 50.9832C240.006 50.9708 239.803 50.8969 239.632 50.7706C239.462 50.6443 239.332 50.4712 239.259 50.2725C239.187 50.0738 239.174 49.8583 239.222 49.6524C239.271 49.4466 239.379 49.2594 239.533 49.1139C239.687 48.9684 239.881 48.871 240.09 48.8337C240.299 48.7963 240.515 48.8207 240.71 48.9037C240.905 48.9867 241.072 49.1249 241.19 49.301C241.307 49.4772 241.37 49.6837 241.372 49.8952C241.373 50.0438 241.344 50.1911 241.286 50.3279C241.228 50.4648 241.142 50.5882 241.034 50.6904C240.926 50.7926 240.797 50.8713 240.657 50.9217C240.517 50.9721 240.367 50.9931 240.218 50.9832ZM238.334 60.3999C238.341 60.8974 238.546 61.3718 238.905 61.7186C239.263 62.0655 239.745 62.2565 240.245 62.2495C240.745 62.2425 241.221 62.0382 241.569 61.6815C241.918 61.3248 242.11 60.8449 242.103 60.3474C242.13 59.8076 241.956 59.2768 241.613 58.858L241.032 59.2332C241.271 59.5294 241.404 59.8964 241.409 60.2761C241.432 60.5341 241.352 60.7905 241.187 60.9909C241.022 61.1912 240.786 61.3198 240.527 61.3491L240.527 58.6854C240.429 58.6854 240.331 58.6854 240.226 58.6854C239.095 58.6854 238.342 59.3832 238.342 60.3887L238.334 60.3999ZM239.035 60.3999C239.033 60.2832 239.053 60.167 239.096 60.0582C239.138 59.9494 239.202 59.85 239.283 59.7656C239.364 59.6813 239.462 59.6138 239.569 59.5668C239.676 59.5199 239.792 59.4945 239.909 59.492L239.909 61.3679C239.667 61.3543 239.44 61.2469 239.277 61.0688C239.114 60.8907 239.027 60.656 239.035 60.4149L239.035 60.3999ZM240.226 40.8499L236.977 40.8499L236.977 41.6003L238.862 41.6003C238.69 41.7328 238.553 41.904 238.462 42.0997C238.37 42.2953 238.326 42.51 238.334 42.7258C238.334 43.2233 238.533 43.7004 238.886 44.0522C239.239 44.404 239.719 44.6016 240.218 44.6016C240.718 44.6016 241.197 44.404 241.551 44.0522C241.904 43.7004 242.103 43.2233 242.103 42.7258C242.111 42.51 242.067 42.2953 241.975 42.0997C241.884 41.904 241.746 41.7328 241.575 41.6003L242.012 41.6003L242.012 40.8499L240.226 40.8499ZM241.503 39.5481C241.503 39.4993 241.512 39.4509 241.53 39.4055C241.548 39.3624 241.573 39.323 241.605 39.2892C241.638 39.2563 241.676 39.2296 241.718 39.2104C241.762 39.1914 241.81 39.1816 241.858 39.1816C241.906 39.1816 241.953 39.1914 241.997 39.2104C242.039 39.2296 242.078 39.2563 242.11 39.2892C242.142 39.323 242.168 39.3624 242.186 39.4055C242.205 39.4504 242.216 39.499 242.216 39.5481C242.215 39.6192 242.194 39.6887 242.156 39.7485C242.117 39.8083 242.062 39.8559 241.997 39.8857C241.953 39.9045 241.906 39.9142 241.858 39.9142C241.81 39.9142 241.762 39.9045 241.718 39.8857C241.676 39.8666 241.638 39.8399 241.605 39.807C241.573 39.7732 241.548 39.7337 241.53 39.6907C241.51 39.6418 241.501 39.5894 241.503 39.5368L241.503 39.5481ZM242.14 39.5481C242.141 39.5107 242.133 39.4736 242.118 39.4393C242.103 39.407 242.083 39.3777 242.057 39.353C242.006 39.3061 241.939 39.28 241.869 39.28C241.799 39.28 241.732 39.3061 241.681 39.353C241.655 39.3777 241.635 39.407 241.62 39.4393C241.605 39.4736 241.598 39.5107 241.598 39.5481C241.598 39.5855 241.606 39.6225 241.62 39.6569C241.634 39.6906 241.655 39.7212 241.681 39.7469C241.732 39.7939 241.799 39.8199 241.869 39.8199C241.939 39.8199 242.006 39.7939 242.057 39.7469C242.083 39.7211 242.104 39.6906 242.118 39.6569C242.134 39.619 242.142 39.578 242.14 39.5368L242.14 39.5481ZM241.692 39.5256C241.69 39.4906 241.701 39.4561 241.722 39.428C241.732 39.4166 241.744 39.4075 241.758 39.4016C241.771 39.3958 241.786 39.3932 241.801 39.3943C241.814 39.3937 241.826 39.3958 241.838 39.4003C241.85 39.4048 241.86 39.4117 241.869 39.4205C241.889 39.4423 241.901 39.47 241.903 39.4993L242.027 39.3905L242.027 39.4768L241.903 39.5781L241.903 39.6119L242.027 39.6119L242.027 39.6832L241.696 39.6832L241.692 39.5256ZM241.756 39.6081L241.846 39.6081L241.846 39.5256C241.851 39.5109 241.851 39.4953 241.846 39.4806C241.841 39.4779 241.835 39.4766 241.829 39.4766C241.824 39.4766 241.818 39.4779 241.812 39.4806C241.807 39.4779 241.801 39.4766 241.796 39.4766C241.79 39.4766 241.784 39.4779 241.779 39.4806C241.774 39.4953 241.774 39.5109 241.779 39.5256L241.756 39.6081ZM240.226 43.735C240.014 43.7225 239.81 43.6486 239.64 43.5223C239.469 43.396 239.34 43.2229 239.267 43.0242C239.194 42.8256 239.181 42.61 239.23 42.4042C239.279 42.1983 239.387 42.0111 239.541 41.8656C239.695 41.7202 239.889 41.6228 240.098 41.5854C240.307 41.5481 240.522 41.5724 240.718 41.6555C240.913 41.7385 241.08 41.8766 241.197 42.0528C241.315 42.229 241.378 42.4355 241.379 42.647C241.381 42.7955 241.352 42.9429 241.294 43.0797C241.236 43.2165 241.15 43.3399 241.042 43.4421C240.933 43.5443 240.805 43.6231 240.665 43.6735C240.524 43.7239 240.375 43.7448 240.226 43.735ZM240.226 70.083L238.425 70.083L238.425 70.8634L238.862 70.8634C238.69 70.9959 238.553 71.167 238.462 71.3627C238.37 71.5584 238.326 71.773 238.334 71.9889C238.334 72.4864 238.533 72.9635 238.886 73.3153C239.239 73.6671 239.719 73.8647 240.218 73.8647C240.718 73.8647 241.197 73.6671 241.551 73.3153C241.904 72.9635 242.103 72.4864 242.103 71.9889C242.111 71.773 242.067 71.5584 241.975 71.3627C241.884 71.167 241.746 70.9959 241.575 70.8634L242.012 70.8634L242.012 70.083L240.226 70.083ZM240.226 72.9868C240.014 72.9744 239.81 72.9004 239.64 72.7742C239.469 72.6479 239.34 72.4747 239.267 72.2761C239.194 72.0774 239.181 71.8619 239.23 71.656C239.279 71.4501 239.387 71.263 239.541 71.1175C239.695 70.972 239.889 70.8746 240.098 70.8372C240.307 70.7999 240.522 70.8243 240.718 70.9073C240.913 70.9903 241.08 71.1284 241.197 71.3046C241.315 71.4808 241.378 71.6873 241.379 71.8988C241.382 72.048 241.354 72.1961 241.296 72.3339C241.239 72.4716 241.153 72.5959 241.044 72.6989C240.936 72.8019 240.807 72.8814 240.666 72.9322C240.525 72.9831 240.375 73.0042 240.226 72.9943L240.226 72.9868Z" fill="white"/>
<path d="M210.973 54.6744L210.973 66.4922L232.307 66.4922L232.307 54.6744L210.973 54.6744Z" fill="#FF5F00"/>
<path d="M221.643 65.7406C219.588 65.7428 217.56 65.2795 215.711 64.3857C213.863 63.492 212.243 62.1913 210.974 60.5821C209.401 62.5745 208.423 64.9673 208.152 67.487C207.88 70.0067 208.326 72.5516 209.439 74.8309C210.551 77.1101 212.286 79.0318 214.444 80.3762C216.601 81.7206 219.096 82.4336 221.641 82.4336C224.187 82.4336 226.681 81.7206 228.839 80.3762C230.996 79.0318 232.731 77.1101 233.843 74.8309C234.956 72.5516 235.402 70.0067 235.131 67.487C234.859 64.9673 233.881 62.5745 232.308 60.5821C231.04 62.1908 229.42 63.4912 227.573 64.3849C225.725 65.2786 223.697 65.7422 221.643 65.7406Z" fill="#EB001B"/>
<path d="M221.641 38.7285C224.186 38.7286 226.681 39.4417 228.839 40.7864C230.996 42.131 232.731 44.053 233.843 46.3325C234.956 48.612 235.401 51.1572 235.13 53.677C234.858 56.1969 233.879 58.5897 232.306 60.582C231.036 58.974 229.416 57.6739 227.569 56.7799C225.721 55.886 223.693 55.4215 221.639 55.4215C219.584 55.4215 217.557 55.886 215.709 56.7799C213.861 57.6739 212.241 58.974 210.972 60.582C209.398 58.5897 208.42 56.1969 208.148 53.677C207.876 51.1572 208.322 48.612 209.434 46.3325C210.547 44.053 212.281 42.131 214.439 40.7864C216.597 39.4417 219.091 38.7286 221.637 38.7285L221.641 38.7285Z" fill="#F79E1B"/>
<path d="M230.043 40.0189L229.606 40.0189L229.606 39.8426L229.516 39.8426L229.516 40.2891L229.606 40.2891L229.606 40.0977L230.043 40.0977L230.043 40.0189ZM230.043 39.1523L229.516 39.1523L229.516 39.2874L229.892 39.4449L229.516 39.6025L229.516 39.7226L230.043 39.7226L230.043 39.625L229.648 39.625L229.99 39.4787L229.99 39.3774L229.648 39.2311L230.047 39.2311L230.043 39.1523Z" fill="#F79E1B"/>
</g>
<defs>
<filter id="filter0_f" x="-109.547" y="-105.238" width="393.781" height="334.452" filterUnits="userSpaceOnUse" color-interpolation-filters="sRGB">
<feFlood flood-opacity="0" result="BackgroundImageFix"/>
<feBlend mode="normal" in="SourceGraphic" in2="BackgroundImageFix" result="shape"/>
<feGaussianBlur stdDeviation="37" result="effect1_foregroundBlur"/>
</filter>
<filter id="filter1_f" x="-191.031" y="87.832" width="433.859" height="481.31" filterUnits="userSpaceOnUse" color-interpolation-filters="sRGB">
<feFlood flood-opacity="0" result="BackgroundImageFix"/>
<feBlend mode="normal" in="SourceGraphic" in2="BackgroundImageFix" result="shape"/>
<feGaussianBlur stdDeviation="62" result="effect1_foregroundBlur"/>
</filter>
<filter id="filter2_b" x="-40" y="-40" width="340" height="490" filterUnits="userSpaceOnUse" color-interpolation-filters="sRGB">
<feFlood flood-opacity="0" result="BackgroundImageFix"/>
<feGaussianBlur in="BackgroundImage" stdDeviation="20"/>
<feComposite in2="SourceAlpha" operator="in" result="effect1_backgroundBlur"/>
<feBlend mode="normal" in="SourceGraphic" in2="effect1_backgroundBlur" result="shape"/>
</filter>
<linearGradient id="paint0_linear" x1="245.781" y1="6.83333" x2="13.7864" y2="394.815" gradientUnits="userSpaceOnUse">
<stop stop-color="#55C0F7"/>
<stop offset="1" stop-color="#A8E8FA"/>
</linearGradient>
<linearGradient id="paint1_linear" x1="8.125" y1="5.85714" x2="239.188" y2="417.967" gradientUnits="userSpaceOnUse">
<stop stop-color="#1B5CF6"/>
<stop offset="0.503297" stop-color="#429EFF"/>
<stop offset="1" stop-color="#CB5BAA"/>
</linearGradient>
<linearGradient id="paint2_linear" x1="245.781" y1="6.83333" x2="13.7864" y2="394.815" gradientUnits="userSpaceOnUse">
<stop stop-color="#55C0F7"/>
<stop offset="1" stop-color="#A8E8FA"/>
</linearGradient>
<linearGradient id="paint3_linear" x1="8.125" y1="5.85714" x2="239.188" y2="417.967" gradientUnits="userSpaceOnUse">
<stop stop-color="#1B5CF6"/>
<stop offset="0.503297" stop-color="#429EFF"/>
<stop offset="0.890632" stop-color="#D33BA7"/>
</linearGradient>
<clipPath id="clip0">
<rect width="55.0746" height="45.3774" fill="white" transform="translate(202.359 88.1211) rotate(-90)"/>
</clipPath>
</defs>
</svg>
